<svg xmlns="http://www.w3.org/2000/svg" width="66" height="66" viewBox="0 0 66 66" fill="none"><circle cx="33" cy="33" r="33" fill="#FFD7D7"></circle><path d="M47.3841 21.3996C46.8866 21.3996 46.4841 21.8021 46.4841 22.2996V23.6496H39.8034C39.3713 21.0168 37.0868 19 34.3334 19C31.2728 19 28.7828 21.4892 28.7828 24.5497C28.7828 27.6102 31.2728 30.1004 34.3334 30.1004C37.0868 30.1004 39.3713 28.0828 39.8034 25.4498H50.4587C50.9562 25.4498 51.3587 25.0472 51.3587 24.5497C51.3587 24.0523 50.9562 23.6496 50.4587 23.6496H48.2842V22.2996C48.2842 21.8021 47.8816 21.3996 47.3841 21.3996ZM34.3332 27.1633C32.8921 27.1633 31.7198 25.991 31.7198 24.5498C31.7198 23.1093 32.8921 21.937 34.3332 21.937C35.7738 21.937 36.9461 23.1093 36.9461 24.5498C36.9461 25.991 35.7738 27.1633 34.3332 27.1633ZM11 30.918V43.5187C11 44.6978 11.963 45.6608 13.1421 45.6608H16.8054C17.9844 45.6608 18.9475 44.6978 18.9475 43.5187V30.918C18.9475 29.7389 17.9844 28.7759 16.8054 28.7759H13.1421C11.963 28.7759 11 29.7389 11 30.918ZM55.9036 34.1852C55.6966 33.3571 55.1655 32.6641 54.4185 32.241C53.6715 31.818 52.8074 31.7281 51.9794 31.971L42.2228 34.9142C42.3938 35.5352 42.3938 36.2283 42.1778 36.8943C41.7098 38.3434 40.3777 39.2705 38.9286 39.2705C38.6225 39.2705 38.3166 39.2344 38.0195 39.1445L28.389 36.5073C27.903 36.3813 27.6239 35.8863 27.759 35.4093C27.885 34.9232 28.389 34.6532 28.857 34.7792L38.4876 37.4074C39.3336 37.6413 40.1976 37.1733 40.4677 36.3453C40.4677 36.3363 40.4677 36.3363 40.4767 36.3273C40.7107 35.5532 40.2067 34.7432 39.4506 34.4732L28.992 30.747C28.8751 30.7289 28.767 30.711 28.6501 30.693L20.7476 31.053V43.5187C20.7476 43.5547 20.7476 43.5907 20.7385 43.6267L35.7064 47.6229C35.7875 47.641 35.8684 47.6589 35.9584 47.6589C36.1024 47.6589 36.2554 47.6139 36.3905 47.5419L54.3825 37.6954C55.6245 37.0113 56.2546 35.5713 55.9036 34.1852Z" fill="#F03F3F"></path></svg>