<svg xmlns="http://www.w3.org/2000/svg" width="66" height="66" viewBox="0 0 66 66" fill="none"><circle cx="33" cy="33" r="33" fill="#FFD7D7"></circle><path d="M29.0184 12.5791L22.0588 15.5059L22.2519 20.0705C21.5742 20.6535 20.9439 21.2895 20.367 21.9724L15.8573 21.6445L13.0035 28.6323L16.3689 31.7251C16.301 32.6164 16.3036 33.5116 16.3767 34.4025L12.9579 37.3579L15.8835 44.3171L20.4473 44.1263C21.0303 44.8046 21.6661 45.4357 22.3488 46.0135L22.0206 50.5229L29.0103 53.3748L32.1043 50.0108C32.9952 50.0784 33.8901 50.0753 34.7805 50.0015L37.737 53.4219L44.6951 50.4931L44.5051 45.9297C45.1823 45.346 45.8125 44.7099 46.39 44.0274L50.8997 44.3561L53.7508 37.3664L50.385 34.2739C50.4526 33.3825 50.4498 32.4871 50.3765 31.5962L53.7949 28.6408L50.8715 21.6812L46.3077 21.8743C45.7249 21.1966 45.089 20.5663 44.4062 19.9894L44.7337 15.4796L37.744 12.6274L34.6492 15.9921C33.758 15.9248 32.8629 15.9278 31.9722 16.001L29.0184 12.5791Z" fill="#F03F3F"></path><path d="M37.7376 54C37.6544 54 37.5722 53.9821 37.4966 53.9475C37.421 53.913 37.3537 53.8625 37.2993 53.7996L34.5331 50.5994C33.804 50.6471 33.0726 50.6493 32.3431 50.6059L29.4376 53.7656C29.3575 53.8526 29.2528 53.913 29.1375 53.9387C29.0221 53.9645 28.9017 53.9543 28.7923 53.9096L21.8026 51.0577C21.6891 51.0116 21.5933 50.9306 21.5288 50.8265C21.4642 50.7225 21.4344 50.6006 21.4434 50.4785L21.7504 46.2611C21.2 45.7791 20.6803 45.2632 20.1941 44.7164L15.9076 44.8956C15.7895 44.9013 15.6724 44.8703 15.5725 44.8069C15.4726 44.7435 15.3948 44.6508 15.3496 44.5415L12.4244 37.5838C12.3769 37.4712 12.3663 37.3464 12.394 37.2274C12.4218 37.1084 12.4865 37.0012 12.5788 36.9211L15.7771 34.1561C15.73 33.4266 15.7283 32.6948 15.7721 31.965L12.6116 29.059C12.5247 28.979 12.4643 28.8743 12.4385 28.759C12.4128 28.6436 12.4229 28.5232 12.4676 28.4138L15.3195 21.424C15.3674 21.3118 15.449 21.2172 15.5529 21.1533C15.6569 21.0894 15.7781 21.0593 15.8999 21.0672L20.1188 21.3738C20.6009 20.8234 21.1168 20.3037 21.6635 19.8176L21.4836 15.531C21.4786 15.4129 21.5099 15.2961 21.5733 15.1963C21.6367 15.0964 21.7291 15.0184 21.8381 14.9726L28.7942 12.0454C28.9068 11.998 29.0316 11.9874 29.1506 12.0151C29.2696 12.0429 29.3768 12.1076 29.4569 12.1999L32.2215 15.3997C32.9509 15.3527 33.6826 15.3506 34.4122 15.3936L37.3186 12.2331C37.3986 12.1462 37.5033 12.0857 37.6187 12.06C37.734 12.0342 37.8545 12.0444 37.9639 12.0891L44.9536 14.9414C45.067 14.9876 45.1628 15.0685 45.2274 15.1726C45.2919 15.2766 45.3218 15.3985 45.3127 15.5206L45.0065 19.7395C45.5569 20.2214 46.0766 20.7373 46.5624 21.2842L50.8489 21.1047C50.9671 21.0991 51.084 21.1301 51.1839 21.1935C51.2838 21.2569 51.3617 21.3495 51.4069 21.4588L54.3318 28.4176C54.3792 28.5302 54.3899 28.655 54.3621 28.774C54.3344 28.893 54.2697 29.0002 54.1773 29.0803L50.9794 31.8453C51.0266 32.575 51.0285 33.3069 50.9852 34.0368L54.1449 36.9424C54.2318 37.0224 54.2921 37.127 54.3179 37.2423C54.3436 37.3575 54.3335 37.4779 54.2889 37.5873L51.4378 44.577C51.3916 44.6904 51.3107 44.7863 51.2066 44.8508C51.1025 44.9153 50.9807 44.9452 50.8586 44.9361L46.6396 44.6272C46.1573 45.1775 45.6414 45.6973 45.0949 46.1839L45.2737 50.4704C45.2786 50.5884 45.2474 50.7051 45.1841 50.8048C45.1208 50.9046 45.0285 50.9826 44.9196 51.0284L37.9616 53.9552C37.8906 53.9849 37.8145 54.0001 37.7376 54ZM34.781 49.4212C34.8642 49.4211 34.9464 49.439 35.022 49.4736C35.0977 49.5082 35.165 49.5587 35.2193 49.6216L37.9009 52.7237L44.1002 50.1163L43.9268 45.9549C43.9231 45.8674 43.9393 45.7803 43.9742 45.7001C44.009 45.6198 44.0616 45.5485 44.128 45.4915C44.7819 44.9273 45.3907 44.3128 45.9488 43.6537C46.0074 43.5836 46.082 43.5286 46.1662 43.4932C46.2505 43.4578 46.3419 43.4431 46.433 43.4501L50.523 43.7479L53.0632 37.5205L49.9947 34.6991C49.9303 34.6398 49.8802 34.5668 49.8481 34.4854C49.816 34.404 49.8027 34.3164 49.8093 34.2291C49.8746 33.3678 49.8719 32.5027 49.8012 31.6418C49.7937 31.5509 49.8078 31.4595 49.8423 31.3751C49.8768 31.2907 49.9307 31.2156 49.9997 31.156L53.0999 28.4759L50.494 22.2759L46.3303 22.4516C46.2428 22.456 46.1554 22.4402 46.0751 22.4053C45.9947 22.3704 45.9234 22.3174 45.8669 22.2504C45.3044 21.5962 44.6911 20.9875 44.0326 20.43C43.9629 20.3711 43.9082 20.2965 43.8729 20.2125C43.8375 20.1284 43.8225 20.0371 43.8291 19.9461L44.1256 15.8539L37.899 13.3144L35.0768 16.3829C35.0176 16.4474 34.9444 16.4975 34.863 16.5296C34.7815 16.5617 34.6938 16.575 34.6065 16.5683C33.7451 16.5034 32.88 16.5063 32.0191 16.5768C31.9282 16.5846 31.8368 16.5706 31.7523 16.5361C31.6678 16.5016 31.5928 16.4475 31.5333 16.3783L28.8533 13.2766L22.6525 15.8832L22.8275 20.0458C22.8311 20.1332 22.8149 20.2203 22.78 20.3006C22.7452 20.3808 22.6926 20.4522 22.6263 20.5092C21.972 21.0724 21.3634 21.6865 20.8062 22.3458C20.747 22.4152 20.6724 22.4698 20.5883 22.5052C20.5042 22.5405 20.413 22.5556 20.322 22.5493L16.2316 22.252L13.6906 28.4782L16.7611 31.3008C16.8255 31.36 16.8756 31.4331 16.9077 31.5145C16.9398 31.5959 16.953 31.6835 16.9464 31.7708C16.8807 32.632 16.8832 33.4972 16.9538 34.3581C16.9612 34.449 16.9471 34.5404 16.9125 34.6248C16.878 34.7093 16.824 34.7843 16.7549 34.8439L13.6543 37.5243L16.261 43.7243L20.4228 43.5506C20.5102 43.5469 20.5973 43.5631 20.6775 43.598C20.7578 43.6328 20.8291 43.6854 20.8862 43.7518C21.4497 44.4059 22.064 45.0146 22.7232 45.5722C22.7926 45.6306 22.8473 45.7045 22.8829 45.7879C22.9186 45.8714 22.9341 45.962 22.9282 46.0526L22.6305 50.1421L28.8579 52.6831L31.6793 49.6154C31.7381 49.5503 31.8112 49.4997 31.8928 49.4676C31.9743 49.4354 32.0623 49.4226 32.1497 49.43C33.0099 49.4946 33.8738 49.4916 34.7335 49.4212C34.749 49.4215 34.7652 49.4212 34.781 49.4212Z" fill="#F03F3F"></path><path d="M37.9927 44.7271C44.5139 42.1783 47.7342 34.8255 45.1854 28.3042C42.6365 21.783 35.2838 18.5627 28.7625 21.1115C22.2412 23.6603 19.0209 31.0131 21.5698 37.5344C24.1186 44.0556 31.4714 47.2759 37.9927 44.7271Z" fill="#F03F3F"></path><path d="M33.3728 46.1832C30.2832 46.1807 27.2914 45.0995 24.9141 43.1263C22.5367 41.1531 20.9229 38.4117 20.3514 35.3754C19.7799 32.3391 20.2865 29.1986 21.7838 26.4961C23.281 23.7935 25.6749 21.6986 28.5522 20.573C30.3671 19.8669 32.3152 19.5693 34.2582 19.7014C36.2011 19.8336 38.091 20.3922 39.7936 21.3375C41.4962 22.2828 42.9696 23.5916 44.109 25.1709C45.2484 26.7502 46.0259 28.5611 46.3861 30.4749C46.7463 32.3887 46.6805 34.3584 46.1932 36.2438C45.706 38.1293 44.8093 39.8842 43.5669 41.3839C42.3246 42.8835 40.767 44.091 39.0051 44.9205C37.2432 45.75 35.3202 46.1811 33.3728 46.1832ZM28.9735 21.652C26.7449 22.5231 24.8247 24.0355 23.4557 25.998C22.0867 27.9605 21.3304 30.2848 21.2824 32.6771C21.2345 35.0694 21.897 37.4222 23.1862 39.438C24.4754 41.4538 26.3334 43.042 28.5253 44.0018C30.7171 44.9616 33.1444 45.2499 35.5 44.8302C37.8557 44.4105 40.0341 43.3016 41.7596 41.6439C43.4851 39.9862 44.6802 37.854 45.1939 35.517C45.7076 33.18 45.5168 30.7432 44.6455 28.5146C43.4742 25.5289 41.1664 23.1296 38.2284 21.843C35.2904 20.5565 31.9621 20.4878 28.9735 21.652Z" fill="#FFD7D7"></path><path d="M31.72 36.5763H29.9857L29.2963 34.7826H26.1401L25.4887 36.5763H23.7972L26.8727 28.6803H28.5584L31.72 36.5763ZM28.785 33.4526L27.6972 30.5227L26.6306 33.4526H28.785ZM32.5653 36.5763V28.6803H35.1237C35.758 28.6549 36.3932 28.6946 37.0194 28.7988C37.4751 28.9195 37.876 29.1919 38.1559 29.5712C38.4767 30.0179 38.638 30.5595 38.6139 31.1089C38.6276 31.5319 38.5368 31.9518 38.3498 32.3315C38.1923 32.6411 37.9626 32.9083 37.6801 33.1104C37.432 33.2886 37.151 33.4158 36.8533 33.4846C36.3067 33.5726 35.7532 33.6104 35.1998 33.5978H34.1598V36.5763H32.5653ZM34.1598 30.016V32.2558H35.0322C35.4562 32.2797 35.8814 32.2379 36.2926 32.1319C36.4944 32.0574 36.6684 31.9226 36.7908 31.7457C36.9128 31.5645 36.9759 31.3501 36.9715 31.1317C36.9811 30.8711 36.8906 30.6167 36.7186 30.4207C36.5508 30.2347 36.3247 30.1114 36.0775 30.0709C35.697 30.0241 35.3135 30.006 34.9302 30.0168L34.1598 30.016ZM39.874 36.5763V28.6803H41.4685V36.5763H39.874Z" fill="#FFD7D7"></path></svg>