<svg xmlns="http://www.w3.org/2000/svg" width="45" height="47" viewBox="0 0 45 47" fill="none"><path fill-rule="evenodd" clip-rule="evenodd" d="M30.2769 1.75376C29.853 1.77534 29.4918 1.44921 29.4702 1.02533C29.4487 0.601443 29.7748 0.24026 30.1987 0.218685L34.2095 0.00101162C34.6334 -0.0205631 34.9946 0.305562 35.0162 0.729447C35.0188 0.779627 35.0164 0.828941 35.0096 0.87681L35.0102 0.876906L34.4315 4.85176C34.3716 5.27227 33.9821 5.56469 33.5616 5.50487C33.1411 5.44506 32.8487 5.05556 32.9085 4.63505L33.179 2.77779C28.2622 7.13309 23.1188 10.7176 17.9247 13.678C12.2734 16.899 6.56349 19.3794 1.0212 21.3094C0.620621 21.4491 0.182674 21.2375 0.0430164 20.8369C-0.0966413 20.4363 0.114964 19.9984 0.515541 19.8587C5.97539 17.9573 11.6 15.5141 17.1661 12.3416C22.2581 9.43937 27.3027 5.92462 32.1289 1.65321L30.2769 1.75376ZM20.8569 15.0016C20.3264 15.0016 19.8938 15.4342 19.8938 15.9648V24.5329C19.8938 24.5593 19.9275 24.57 19.943 24.5492C20.6041 23.8032 21.3711 23.153 22.2204 22.6222C23.056 22.1001 23.9712 21.6934 24.9435 21.425C24.9555 21.4216 24.9634 21.4107 24.9635 21.3988C24.9635 19.5874 24.9636 17.7761 24.9636 15.9647C24.9636 15.4342 24.531 15.0015 24.0005 15.0015C22.9527 15.0016 21.9048 15.0016 20.8569 15.0016ZM30.1692 10.2662C29.6387 10.2662 29.206 10.6989 29.206 11.2294V21.1352C29.206 21.1493 29.2168 21.161 29.2308 21.1623C30.1577 21.2984 31.0448 21.5571 31.875 21.9213C32.7261 22.2947 33.5178 22.7793 34.2315 23.3566C34.2433 23.366 34.2604 23.3643 34.2698 23.3525C34.274 23.3474 34.2759 23.3414 34.2759 23.3354C34.2759 19.3001 34.2759 15.2647 34.2759 11.2294C34.2759 10.6989 33.8433 10.2662 33.3128 10.2662C32.2649 10.2662 31.217 10.2662 30.1692 10.2662ZM10.6086 21.2559V33.9921C10.6086 34.5226 11.0412 34.9552 11.5717 34.9552H14.6606C15.1912 34.9552 15.6238 34.5226 15.6238 33.9921C15.6238 29.4985 15.6238 25.7493 15.6238 21.2558C15.6238 20.7253 15.1912 20.2926 14.6606 20.2926C13.6309 20.2926 12.6013 20.2926 11.5717 20.2926C11.0412 20.2927 10.6086 20.7254 10.6086 21.2559ZM6.31133 33.9921V26.2969C6.31133 25.7664 5.87868 25.3338 5.34818 25.3338H2.25924C1.72873 25.3338 1.29608 25.7664 1.29608 26.2969V33.9921C1.29608 34.5226 1.72873 34.9552 2.25924 34.9552H5.34818C5.87859 34.9551 6.31133 34.5225 6.31133 33.9921ZM34.977 36.5013L37.7411 39.2135L37.85 39.1013C38.1586 38.7834 38.6713 38.7756 38.9892 39.0842L43.8558 43.8065C44.1737 44.1151 44.1815 44.6277 43.8729 44.9457L42.1159 46.7564C41.8073 47.0744 41.2947 47.082 40.9767 46.7735L36.1101 42.0512C35.7921 41.7427 35.7845 41.2299 36.093 40.912L36.1843 40.8179L33.4747 38.1587C31.9252 39.4869 29.9118 40.2894 27.711 40.2894C22.8168 40.2894 18.8491 36.3217 18.8491 31.4275C18.8491 26.559 22.7931 22.5656 27.711 22.5656C32.6095 22.5656 36.5729 26.5381 36.5729 31.4275C36.5728 33.3148 35.9825 35.064 34.977 36.5013ZM33.0078 34.9551C33.6815 33.9455 34.0743 32.7323 34.0743 31.4275C34.0743 27.8957 31.2079 25.0641 27.7109 25.0641C24.2161 25.0641 21.3476 27.8934 21.3476 31.4275C21.3476 34.9284 24.1831 37.7908 27.7109 37.7908C29.9205 37.7909 31.867 36.6648 33.0078 34.9551Z" fill="#F35858"></path></svg>