<svg width="71" height="71" viewBox="0 0 71 71" fill="none" xmlns="http://www.w3.org/2000/svg">
<circle cx="35.7415" cy="35.3787" r="35.1133" fill="white"/>
<path d="M53.2312 45.6386C52.9877 46.8926 52.3078 48.0197 51.3122 48.82C50.3167 49.6203 49.0697 50.042 47.7928 50.0103H23.6958C22.4189 50.042 21.172 49.6203 20.1764 48.82C19.1808 48.0197 18.5009 46.8926 18.2574 45.6386C18.0766 44.5632 18.2355 43.4582 18.7118 42.4772C19.1882 41.4962 19.9584 40.6881 20.9154 40.1652C21.174 40.0223 21.3887 39.8117 21.5366 39.556C21.6844 39.3003 21.7599 39.0091 21.7548 38.7138V32.5234C21.75 29.7327 22.58 27.0043 24.1381 24.6889C25.6962 22.3736 27.9111 20.5772 30.4982 19.5307C30.5052 18.1393 31.0646 16.8078 32.0533 15.8288C33.0421 14.8499 34.3792 14.3039 35.7705 14.3109C37.1619 14.3178 38.4935 14.8772 39.4724 15.8659C40.4513 16.8547 40.9973 18.1918 40.9904 19.5832C43.5998 20.7285 45.8176 22.6115 47.371 25.0006C48.9244 27.3898 49.7457 30.1808 49.7338 33.0306V38.7138C49.7217 39.0023 49.7866 39.2887 49.9218 39.5438C50.057 39.7989 50.2577 40.0134 50.5032 40.1652C51.4731 40.6778 52.2579 41.4815 52.7473 42.4633C53.2366 43.4451 53.4058 44.5556 53.2312 45.6386ZM35.7443 57.0051C36.965 56.9977 38.1625 56.671 39.2178 56.0575C40.2731 55.4439 41.1495 54.5649 41.7598 53.5077H29.7288C30.3391 54.5649 31.2155 55.4439 32.2708 56.0575C33.3261 56.671 34.5236 56.9977 35.7443 57.0051Z" fill="#F35858"/>
</svg>
