<svg width="71" height="71" viewBox="0 0 71 71" fill="none" xmlns="http://www.w3.org/2000/svg">
<circle cx="35.4018" cy="35.1392" r="35.1133" fill="white"/>
<path d="M56.712 35.2954C57.119 34.7382 57.408 34.1037 57.5611 33.4308C57.7141 32.758 57.7282 32.0609 57.6022 31.3825C57.4872 30.6993 57.2353 30.0464 56.8617 29.463C56.4882 28.8796 56.0007 28.3776 55.4284 27.9872L52.4057 25.9375C52.2801 25.851 52.1758 25.7371 52.1005 25.6044C52.0252 25.4717 51.9809 25.3237 51.971 25.1715L51.7018 21.5485C51.6532 20.8578 51.4647 20.1843 51.148 19.5686C50.8313 18.9529 50.3928 18.408 49.8592 17.9668C49.3299 17.52 48.7165 17.1836 48.0552 16.9774C47.3938 16.7712 46.698 16.6993 46.0085 16.766L42.4061 17.1387C42.2501 17.1591 42.0914 17.1415 41.9436 17.0875C41.7958 17.0334 41.6633 16.9444 41.5573 16.8281L39.0108 14.2195C38.527 13.7278 37.9502 13.3372 37.3139 13.0706C36.6777 12.804 35.9948 12.6667 35.3049 12.6667C34.6151 12.6667 33.9321 12.804 33.2959 13.0706C32.6597 13.3372 32.0828 13.7278 31.599 14.2195L29.0526 16.8281C28.9465 16.9444 28.814 17.0334 28.6662 17.0875C28.5184 17.1415 28.3598 17.1591 28.2037 17.1387L24.6014 16.766C23.9125 16.7007 23.2175 16.7731 22.5569 16.979C21.8962 17.1848 21.2831 17.52 20.7533 17.9651C20.2234 18.4102 19.7874 18.9562 19.4706 19.5714C19.1538 20.1866 18.9626 20.8587 18.908 21.5485L18.6389 25.1715C18.6271 25.3285 18.58 25.4808 18.5011 25.617C18.4222 25.7532 18.3136 25.8699 18.1834 25.9582L15.1814 28.0079C14.6128 28.3973 14.1276 28.8963 13.7544 29.4756C13.3811 30.055 13.1272 30.703 13.0077 31.3818C12.8881 32.0605 12.9053 32.7563 13.0581 33.4283C13.211 34.1004 13.4965 34.7351 13.8978 35.2954L16.0303 38.2559C16.12 38.3838 16.1797 38.5303 16.2048 38.6844C16.2299 38.8386 16.2198 38.9965 16.1752 39.1462L15.1814 42.645C14.9974 43.3119 14.9483 44.0089 15.0372 44.6951C15.1261 45.3812 15.3511 46.0427 15.699 46.6407C16.0434 47.2396 16.5052 47.7628 17.0565 48.179C17.6079 48.5952 18.2377 48.8959 18.908 49.063L22.4275 49.9532C22.5782 49.9911 22.7182 50.063 22.8366 50.1635C22.9551 50.264 23.0489 50.3904 23.1107 50.5329L24.6014 53.8454C24.884 54.4778 25.2907 55.047 25.7973 55.5193C26.304 55.9916 26.9004 56.3573 27.5511 56.5948C28.2018 56.8323 28.8935 56.9367 29.5853 56.9019C30.2771 56.867 30.9548 56.6936 31.5783 56.3919L34.8494 54.8185C34.9906 54.747 35.1467 54.7097 35.3049 54.7097C35.4632 54.7097 35.6192 54.747 35.7604 54.8185L39.0315 56.3919C39.7272 56.7337 40.4923 56.9108 41.2674 56.9095C41.8743 56.909 42.4766 56.8039 43.0479 56.5989C43.6994 56.3593 44.2966 55.9925 44.8049 55.5197C45.3132 55.047 45.7223 54.4778 46.0085 53.8454L47.4991 50.5329C47.561 50.3904 47.6548 50.264 47.7732 50.1635C47.8917 50.063 48.0316 49.9911 48.1823 49.9532L51.7018 49.063C52.372 48.8942 53.0015 48.5926 53.553 48.176C54.1045 47.7594 54.5667 47.2364 54.9123 46.6379C55.2579 46.0394 55.4798 45.3775 55.5649 44.6917C55.65 44.0058 55.5965 43.3098 55.4077 42.645L54.4346 39.1462C54.3901 38.9965 54.38 38.8386 54.405 38.6844C54.4301 38.5303 54.4898 38.3838 54.5796 38.2559L56.712 35.2954ZM44.7663 31.4446L35.16 41.0509C34.2995 41.9 33.1392 42.3761 31.9303 42.3761C30.7214 42.3761 29.5611 41.9 28.7006 41.0509L25.8436 38.1938C25.632 37.9857 25.4639 37.7376 25.3492 37.4639C25.2345 37.1902 25.1755 36.8964 25.1755 36.5997C25.1755 36.3029 25.2345 36.0091 25.3492 35.7354C25.4639 35.4617 25.632 35.2136 25.8436 35.0055C26.269 34.5878 26.8414 34.3537 27.4377 34.3537C28.034 34.3537 28.6064 34.5878 29.0319 35.0055L31.8889 37.8626L41.5987 28.2563C42.0215 27.8362 42.5938 27.6014 43.1898 27.6033C43.7858 27.6052 44.3566 27.8439 44.7766 28.2666C45.1967 28.6894 45.4316 29.2618 45.4296 29.8578C45.4277 30.4537 45.1891 31.0245 44.7663 31.4446Z" fill="#F35858"/>
</svg>
