<svg xmlns="http://www.w3.org/2000/svg" width="55" height="38" viewBox="0 0 55 38" fill="none"><path d="M54.3104 21.0726C54.2455 19.5682 52.7736 18.3668 49.9271 17.501C47.7192 16.8408 44.916 16.4403 41.8855 16.3754V4.82711C41.8747 4.6323 41.8206 4.44831 41.7232 4.28596C41.4201 2.97636 39.959 1.91569 37.3723 1.13643C34.9371 0.400456 31.7551 0 28.4107 0C25.0772 0 21.9277 0.400456 19.5357 1.13643C17.5768 1.74252 15.2281 2.86813 15.2281 4.80547C15.2281 4.92452 15.239 5.04358 15.2606 5.16263L15.3797 10.098C8.34463 8.75591 1.55853 13.3774 0.227286 20.4016C0.0757619 21.2025 0 22.0034 0 22.8152C0 29.9584 5.81202 35.7704 12.9553 35.7704C15.9316 35.7704 18.8106 34.7531 21.1159 32.8698C23.1398 33.3461 25.5209 33.6058 28.0427 33.6275C28.5947 36.6255 35.0886 38 41.1387 38C44.4722 38 47.6218 37.5887 50.0137 36.8419C51.9727 36.2358 54.3213 35.0994 54.3213 33.1621V21.2783C54.3213 21.2133 54.3213 21.1376 54.3104 21.0726ZM39.6235 10.8123C39.6235 10.953 39.104 11.6998 36.7553 12.4141C34.5582 13.0743 31.5169 13.464 28.4215 13.464C25.7482 13.464 23.129 13.1826 21.051 12.6522C21.0185 12.6414 20.9969 12.6414 20.9644 12.6306C19.9362 11.8189 18.7998 11.1695 17.5768 10.7149L17.501 7.66277C18.2478 8.04158 19.0271 8.34463 19.8388 8.56109C22.1874 9.24295 25.2287 9.61094 28.4215 9.61094C31.7551 9.61094 34.9479 9.21048 37.3831 8.47451C38.1948 8.2364 38.9849 7.92253 39.7317 7.5329V10.3686C39.6126 10.5201 39.6235 10.6608 39.6235 10.8123ZM20.1851 3.22529C22.3714 2.55426 25.2936 2.17545 28.4107 2.17545C31.5061 2.17545 34.5474 2.55426 36.7445 3.22529C39.0931 3.93962 39.6126 4.67559 39.6126 4.81629C39.6126 4.96782 39.0823 5.71461 36.7337 6.41811C34.5366 7.07832 31.5061 7.45713 28.4107 7.45713C25.4235 7.45713 22.5879 7.11079 20.4341 6.48305C18.1071 5.81202 17.4577 5.07605 17.4036 4.83794C17.4036 4.81629 17.3928 4.81629 17.3928 4.81629C17.4036 4.61065 17.9015 3.91797 20.1851 3.22529ZM20.2176 30.8026C15.8126 34.8072 8.9832 34.4933 4.97864 30.0883C0.974081 25.6833 1.28795 18.8539 5.69296 14.8493C7.6736 13.0419 10.2711 12.0461 12.9553 12.0461C14.0376 12.0461 15.1091 12.2085 16.1481 12.5224C19.9037 13.6913 22.7286 16.8083 23.5295 20.6505C23.6702 21.3649 23.7459 22.1008 23.7459 22.826C23.7568 25.8673 22.4688 28.757 20.2176 30.8026ZM22.9667 31.0407C23.8433 29.9692 24.5469 28.7679 25.0447 27.4799C25.9647 27.5557 26.9171 27.6098 27.9128 27.6206V27.8154L27.9778 31.4845C26.3002 31.4628 24.6226 31.3113 22.9667 31.0407ZM25.8565 21.538C26.4842 21.5813 27.1444 21.603 27.8154 21.6138L27.8804 25.4452C27.1228 25.4343 26.376 25.4019 25.6616 25.3478C25.824 24.5144 25.9106 23.6594 25.9106 22.8152C25.9106 22.3931 25.8889 21.9709 25.8565 21.538ZM28.5189 19.46C28.4865 19.46 28.4432 19.46 28.4107 19.46C27.3717 19.46 26.3651 19.4167 25.4343 19.3517C25.0231 17.9015 24.3737 16.5377 23.497 15.3255C25.1205 15.5312 26.7548 15.6394 28.3999 15.6394C31.7442 15.6394 34.9371 15.239 37.3723 14.503C38.184 14.2649 38.9633 13.951 39.7101 13.5722V16.4079C35.0669 16.5377 30.2939 17.5118 28.5189 19.46ZM29.9476 21.1809C29.9476 21.17 29.9476 21.1592 29.9584 21.1376C30.0558 20.8453 30.8243 20.131 33.0647 19.5033C35.1643 18.908 37.9026 18.5833 40.7815 18.5833H40.9655C44.061 18.5833 47.0914 18.9405 49.2993 19.6115C51.6047 20.3042 52.1458 21.0185 52.1567 21.1809V21.1917C52.1458 21.354 51.6047 22.1008 49.2019 22.8152C46.9832 23.4754 44.061 23.8325 40.9764 23.8325C37.9892 23.8325 35.1535 23.4862 32.9997 22.8693C30.6727 22.1982 30.0342 21.4514 29.9692 21.2242C29.9476 21.1809 29.9476 21.1809 29.9476 21.1809ZM49.3859 34.7855C47.1997 35.4674 44.2666 35.8462 41.1495 35.8462C38.0216 35.8462 35.0994 35.4782 32.9348 34.818C30.6511 34.1145 30.1749 33.3893 30.1749 33.227C30.1749 33.2162 30.1749 33.2162 30.1749 33.2054L30.1208 30.0666C30.9866 30.4888 31.8849 30.8134 32.8157 31.0515C35.0886 31.6468 37.9784 31.9823 40.9439 31.9823C44.2882 31.9823 47.4594 31.5819 49.8838 30.8459C50.6739 30.6078 51.4315 30.2939 52.1567 29.9259V33.1729H52.1675C52.1675 33.3244 51.6696 34.0712 49.3859 34.7855ZM52.1783 26.8197H52.1675C52.1675 26.9279 52.1025 27.0578 52.1025 27.1769C52.1025 27.3284 51.5938 28.0644 49.2561 28.7787C47.0373 29.4497 44.0826 29.8177 40.9547 29.8177C34.9587 29.8177 30.9217 28.4648 30.0775 27.415L30.0666 26.5058L30.0234 24.0165C30.781 24.3953 31.5711 24.6984 32.3828 24.9257C34.7314 25.6075 37.7727 25.9755 40.9655 25.9755C44.2558 25.9755 47.3945 25.5859 49.808 24.8715C50.6306 24.6443 51.4207 24.3304 52.1783 23.9408V26.8197Z" fill="#F35858"></path><path d="M16.8948 24.3521C16.3969 22.5879 14.7842 21.3757 12.9551 21.3757C11.8945 21.3757 11.0286 20.5207 11.0286 19.46C11.0394 18.3885 11.8945 17.5335 12.9551 17.5335C14.0158 17.5335 14.8817 18.3994 14.8817 19.46C14.8817 20.0553 15.3687 20.5423 15.964 20.5423C16.5592 20.5423 17.0463 20.0553 17.0463 19.46C17.0463 17.6309 15.8341 16.0183 14.0699 15.5204V15.0334C14.0699 14.4381 13.5829 13.951 12.9876 13.951C12.3923 13.951 11.9053 14.4381 11.9053 15.0334V15.4988C9.72984 16.0832 8.43107 18.3236 9.01552 20.499C9.49174 22.2849 11.1044 23.5295 12.9551 23.5295C14.0158 23.5295 14.8817 24.3845 14.8817 25.4452C14.8817 26.5059 14.0266 27.3717 12.966 27.3717C11.9053 27.3717 11.0394 26.5167 11.0394 25.456C11.0394 24.8608 10.5524 24.3737 9.95713 24.3737C9.36186 24.3737 8.87482 24.8608 8.87482 25.456C8.88564 27.3068 10.1195 28.9194 11.9053 29.4065V30.3481C11.9053 30.9434 12.3923 31.4304 12.9876 31.4304C13.5829 31.4304 14.0699 30.9434 14.0699 30.3481V29.3957C16.2454 28.7787 17.5117 26.5275 16.8948 24.3521Z" fill="#F35858"></path></svg>