<svg width="40" height="40" viewBox="0 0 40 40" fill="none" xmlns="http://www.w3.org/2000/svg">
<path d="M32.6612 27.7312L32.6603 27.7314C32.5496 27.7581 32.4369 27.772 32.3248 27.772C32.0698 27.772 31.819 27.7022 31.5967 27.5672L29.2644 26.1516L29.2643 26.1515C28.913 25.9381 28.8001 25.4795 29.0145 25.1272M32.6612 27.7312L22.7016 23.7235L22.5044 23.5698C22.5043 23.5699 22.5042 23.57 22.5042 23.57C22.2507 23.8956 22.3104 24.3639 22.6351 24.6165C22.9617 24.8706 23.4297 24.8092 23.6812 24.4855C24.5496 23.3682 25.8567 22.7282 27.2696 22.7282C29.2463 22.7282 30.9492 24.0094 31.5629 25.802L30.0389 24.8767L30.0386 24.8766C29.6861 24.6631 29.2278 24.7749 29.0145 25.1272M32.6612 27.7312C33.0254 27.6419 33.3347 27.4155 33.5286 27.0945C33.5287 27.0944 33.5287 27.0943 33.5288 27.0942L34.9442 24.7627L32.6612 27.7312ZM29.0145 25.1272C29.0145 25.1274 29.0144 25.1275 29.0143 25.1277L29.2282 25.257L29.0148 25.1268C29.0147 25.127 29.0146 25.1271 29.0145 25.1272ZM33.6704 23.9883L33.6704 23.9883C33.8839 23.637 34.3413 23.5238 34.6945 23.7377L34.6948 23.7379C35.0461 23.9514 35.1589 24.4101 34.9445 24.7623L33.6704 23.9883ZM33.6704 23.9883L32.9353 25.1988L33.6704 23.9883ZM32.0349 30.969C30.8827 32.4513 29.1448 33.3022 27.2695 33.3022C24.6862 33.3022 22.4535 31.6584 21.6038 29.3402L20.8689 30.5504C20.7287 30.7821 20.4823 30.9094 20.231 30.9094C20.0985 30.9094 19.9653 30.8742 19.8449 30.8015L19.8443 30.8011C19.4929 30.5876 19.38 30.1287 19.5948 29.7764L21.0102 27.4449C21.2041 27.1238 21.5135 26.8972 21.8778 26.8079L21.8791 26.8076C22.2458 26.7198 22.6219 26.7776 22.9421 26.9719L22.9422 26.9719L25.2746 28.3876L25.2747 28.3876C25.6259 28.601 25.7389 29.0596 25.5245 29.4118C25.3111 29.7645 24.8535 29.8753 24.5008 29.6629L24.5001 29.6624L22.9761 28.7372C23.5898 30.5297 25.2927 31.8109 27.2694 31.8109C28.6823 31.8109 29.9894 31.1709 30.8578 30.0536C31.1097 29.7287 31.5787 29.6692 31.904 29.9227C32.2287 30.1753 32.2883 30.6435 32.0349 30.969ZM32.0349 30.969C32.0348 30.9691 32.0348 30.9692 32.0347 30.9693L31.8375 30.8156L32.0349 30.969ZM39.25 8.10435C39.25 6.23539 37.7298 4.71522 35.8609 4.71522H35.2848V4.13913C35.2848 2.27018 33.7646 0.75 31.8957 0.75H4.13913C2.27018 0.75 0.75 2.27018 0.75 4.13913V21.3217C0.75 23.1907 2.27018 24.7109 4.13913 24.7109H4.71522V25.287C4.71522 27.1559 6.23539 28.6761 8.10435 28.6761H15.3732C16.0719 34.6218 21.1391 39.25 27.2696 39.25C33.8756 39.25 39.25 33.876 39.25 27.2696C39.25 26.8259 39.2206 26.3908 39.1736 25.9633C39.2206 25.7518 39.25 25.527 39.25 25.287V8.10435ZM6.20652 11.4935H37.7587V15.2891H6.20652V11.4935ZM37.7587 8.10435V10.0022H6.20652V8.10435C6.20652 7.05814 7.05814 6.20652 8.10435 6.20652H35.8609C36.9071 6.20652 37.7587 7.05814 37.7587 8.10435ZM4.13913 23.2196C3.09292 23.2196 2.2413 22.3679 2.2413 21.3217V4.13913C2.2413 3.09292 3.09292 2.2413 4.13913 2.2413H31.8957C32.9419 2.2413 33.7935 3.09292 33.7935 4.13913V4.71522H8.10435C6.23539 4.71522 4.71522 6.23539 4.71522 8.10435V23.2196H4.13913ZM8.10435 27.1848C7.05814 27.1848 6.20652 26.3332 6.20652 25.287V16.7804H21.4983C17.825 18.8086 15.3207 22.7055 15.2894 27.1848H8.10435ZM27.2696 37.7587C21.4862 37.7587 16.7804 33.0531 16.7804 27.2696C16.7804 21.486 21.4862 16.7804 27.2696 16.7804C33.0529 16.7804 37.7587 21.486 37.7587 27.2696C37.7587 33.0531 33.0529 37.7587 27.2696 37.7587ZM33.0407 16.7804H37.7587V21.4985C36.6635 19.5155 35.0237 17.8756 33.0407 16.7804Z" fill="#F35858" stroke="#F35858" stroke-width="0.5"/>
</svg>
