<svg xmlns="http://www.w3.org/2000/svg" width="121" height="86" viewBox="0 0 121 86" fill="none"><path d="M99.4334 60.1555H82.215C81.0771 60.157 79.9863 60.6097 79.1817 61.4143C78.3771 62.2188 77.9244 63.3097 77.9229 64.4476V71.2922C77.9244 72.43 78.3771 73.5209 79.1817 74.3255C79.9863 75.13 81.0771 75.5827 82.215 75.5842H99.4334C100.571 75.5827 101.662 75.13 102.467 74.3255C103.271 73.5209 103.724 72.43 103.725 71.2922V64.4476C103.724 63.3097 103.271 62.2188 102.467 61.4143C101.662 60.6097 100.571 60.157 99.4334 60.1555ZM82.215 71.2922V64.4476H99.4334L99.4356 71.2922H82.215ZM18.044 65.7239H10.0531C9.4839 65.7239 8.93805 65.9499 8.5356 66.3524C8.13314 66.7549 7.90704 67.3007 7.90704 67.8699C7.90704 68.439 8.13314 68.9849 8.5356 69.3873C8.93805 69.7898 9.4839 70.0159 10.0531 70.0159H18.044C18.6059 70.0049 19.1412 69.774 19.5347 69.3728C19.9282 68.9715 20.1486 68.4319 20.1486 67.8699C20.1486 67.3078 19.9282 66.7682 19.5347 66.367C19.1412 65.9657 18.6059 65.7348 18.044 65.7239ZM33.9862 65.7239H25.9952C25.426 65.7239 24.8802 65.9499 24.4777 66.3524C24.0753 66.7549 23.8492 67.3007 23.8492 67.8699C23.8492 68.439 24.0753 68.9849 24.4777 69.3873C24.8802 69.7898 25.426 70.0159 25.9952 70.0159H33.9862C34.5481 70.0049 35.0833 69.774 35.4768 69.3728C35.8703 68.9715 36.0908 68.4319 36.0908 67.8699C36.0908 67.3078 35.8703 66.7682 35.4768 66.367C35.0833 65.9657 34.5481 65.7348 33.9862 65.7239ZM49.9283 65.7239H41.9352C41.366 65.7239 40.8202 65.9499 40.4177 66.3524C40.0153 66.7549 39.7892 67.3007 39.7892 67.8699C39.7892 68.439 40.0153 68.9849 40.4177 69.3873C40.8202 69.7898 41.366 70.0159 41.9352 70.0159H49.9283C50.4902 70.0049 51.0254 69.774 51.4189 69.3728C51.8124 68.9715 52.0329 68.4319 52.0329 67.8699C52.0329 67.3079 51.8125 66.7683 51.4189 66.367C51.0254 65.9657 50.4902 65.7348 49.9283 65.7239ZM65.9983 65.7239H58.0052C57.4361 65.7239 56.8902 65.9499 56.4878 66.3524C56.0853 66.7549 55.8592 67.3007 55.8592 67.8699C55.8592 68.439 56.0853 68.9849 56.4878 69.3873C56.8902 69.7898 57.4361 70.0159 58.0052 70.0159H65.9983C66.5602 70.0049 67.0954 69.774 67.4889 69.3728C67.8825 68.9715 68.1029 68.4319 68.1029 67.8699C68.1029 67.3078 67.8825 66.7682 67.4889 66.367C67.0954 65.9657 66.5602 65.7348 65.9983 65.7239Z" fill="#F03F3F"></path><path d="M110.038 0H18.1301C15.4422 0.00324954 12.8654 1.07258 10.965 2.97339C9.06456 4.87419 7.99577 7.45123 7.99307 10.1391V18.1696C5.70841 18.7703 3.68617 20.1089 2.24071 21.9774C0.795241 23.8458 0.00752396 26.1395 0 28.5018V75.2699C0.00333956 78.1147 1.1349 80.842 3.14646 82.8535C5.15802 84.8651 7.88531 85.9967 10.7301 86H101.454C104.299 85.9967 107.026 84.8651 109.037 82.8535C111.049 80.842 112.181 78.1147 112.184 75.2699V67.9893C114.445 67.498 116.47 66.2487 117.924 64.4484C119.378 62.6482 120.173 60.4052 120.177 58.0913V10.1391C120.174 7.4509 119.105 4.87362 117.204 2.97278C115.303 1.07194 112.726 0.00281202 110.038 0ZM10.7301 22.0637H101.454C103.161 22.0656 104.797 22.7445 106.004 23.9515C107.211 25.1584 107.89 26.7949 107.892 28.5018V33.7557H4.29203V28.5018C4.2939 26.7949 4.97279 25.1584 6.17975 23.9515C7.38672 22.7445 9.02318 22.0656 10.7301 22.0637ZM107.892 75.2699C107.89 76.9768 107.211 78.6133 106.004 79.8203C104.797 81.0272 103.161 81.7061 101.454 81.708H10.7301C9.02318 81.7061 7.38672 81.0272 6.17975 79.8203C4.97279 78.6133 4.2939 76.9768 4.29203 75.2699V38.0478H107.892V75.2699ZM115.885 58.0913C115.882 59.2621 115.528 60.4052 114.868 61.3725C114.208 62.3397 113.273 63.0864 112.184 63.5159V28.5018C112.181 25.657 111.049 22.9297 109.037 20.9182C107.026 18.9066 104.299 17.775 101.454 17.7717H12.2851V10.1391C12.2867 8.5892 12.9029 7.10321 13.9987 6.00708C15.0944 4.91094 16.5802 4.29416 18.1301 4.29203H110.038C111.588 4.29408 113.074 4.91077 114.17 6.00686C115.266 7.10295 115.883 8.58899 115.885 10.1391V58.0913Z" fill="#F03F3F"></path></svg>