<svg xmlns="http://www.w3.org/2000/svg" width="66" height="66" viewBox="0 0 66 66" fill="none"><circle cx="33" cy="33" r="33" fill="#FFD7D7"></circle><path d="M53.6986 33.1775C53.6394 33.1183 53.6394 33.0592 53.6394 32.9408C53.1662 22.3521 44.4113 12 33.7042 12C22.9972 12 14.2423 22.3521 13.769 32.9408C13.769 33 13.769 33.1183 13.7099 33.1775C13.2366 34.0056 13 34.9521 13 35.8986C13 38.7972 15.1296 41.2225 17.969 41.6958C18.0873 41.6958 18.2056 41.7549 18.3239 41.8732C18.738 42.3465 19.2704 42.8197 19.862 43.293C22.2282 49.6225 27.5521 54 33.7634 54C41.0394 54 47.1324 47.907 48.6113 39.7437V41.1634C48.6113 41.5183 48.907 41.7549 49.2028 41.7549C52.1606 41.4592 54.4084 38.9746 54.4084 35.9577C54.4084 34.9521 54.1718 34.0056 53.6986 33.1775ZM33.7042 51.9296C29.3268 51.9296 25.3634 49.2676 22.9972 45.1859C22.938 45.1268 22.9972 45.0085 23.1155 45.0676C24.1211 45.4225 25.2451 45.7183 26.5465 45.8366C26.7239 45.8366 26.8423 45.9549 26.9606 46.0732C27.6113 46.9014 28.7944 47.493 30.2141 47.493C32.2254 47.493 33.8817 46.3099 33.8817 44.831C33.8817 43.3521 32.2254 42.169 30.2141 42.169C28.9127 42.169 27.7296 42.6423 27.0789 43.4113C26.9606 43.5296 26.7831 43.5887 26.6056 43.5887C24.4761 43.293 22.8789 42.6423 21.6958 41.8732C21.5183 41.7549 21.4 41.6366 21.3408 41.4592C21.1042 40.6901 20.9268 39.862 20.7493 38.9746C20.6901 38.6789 20.8676 38.3239 21.1042 38.1465C23.9437 36.3718 26.2507 34.0648 27.907 31.3437C28.1437 30.9296 28.7352 30.8113 29.1493 31.1662C31.8704 33.5915 36.7803 36.8451 45.6535 39.8028C46.0676 39.9211 46.3042 40.3352 46.1859 40.7493C44.5296 47.3155 39.4423 51.9296 33.7042 51.9296ZM50.2085 30.338C49.8535 30.2197 49.5577 30.1606 49.2028 30.1014C48.8479 30.0423 48.5521 30.338 48.5521 30.693V32.1718C47.0732 24.0676 40.9803 17.9746 33.7042 17.9746C26.4282 17.9746 20.3352 24.0676 18.8563 32.1718V30.693C18.8563 30.338 18.5606 30.1014 18.2056 30.1014C17.8507 30.1606 17.4958 30.2197 17.2 30.338C16.7859 30.4563 16.3718 30.1014 16.4901 29.6873C18.3831 21.938 25.3634 14.307 33.7042 14.307C42.0451 14.307 49.0254 21.938 50.9183 29.6873C51.0366 30.0423 50.6225 30.4563 50.2085 30.338Z" fill="#F03F3F"></path></svg>