<svg xmlns="http://www.w3.org/2000/svg" width="66" height="66" viewBox="0 0 66 66" fill="none"><circle cx="33" cy="33" r="33" fill="#FFD7D7"></circle><path d="M42.2524 36.8658C45.7083 34.4085 48.6841 30.5264 48.6841 26.5899V23.6092H54.4618L44.7719 12L35.1316 23.6088H40.9093V26.5851C40.8787 27.3193 39.3087 29.8743 36.5374 31.2806L34.0626 32.5362L30.3074 30.6304C27.7869 29.3514 26.4054 27.0705 26.3344 26.5899V23.6088H30.6801H31.8949L21.7196 12.4859L11.0001 23.6088H12.9438H17.1019V26.5899C17.1019 30.9399 20.4722 35.2083 24.2731 37.7647C20.5135 40.5229 17.8847 44.8175 17.8847 48.5659V53.9995H25.6595V48.5659C25.6595 47.3389 27.4948 44.5876 30.0309 43.3009L32.4518 42.0725L36.154 43.9511C38.6254 45.2052 40.126 47.7719 40.126 48.5659V54L41.5667 53.9995H48.4178L49.3586 54V48.5654C49.3591 44.4593 46.4129 39.74 42.2524 36.8658ZM46.9294 52.7847H42.5561V48.5654C42.5561 46.6343 40.2883 43.3237 37.2537 41.7838L27.2285 36.6972C23.4446 34.7773 19.5315 30.4715 19.5315 26.5899V21.478H17.1019L21.7196 16.7431L26.3344 21.478H23.9048V26.5899C23.9048 28.2163 26.2217 31.282 29.2082 32.7971L39.2329 37.8843C43.5484 40.0739 46.9294 44.7655 46.9294 48.5659V52.7847Z" fill="#F03F3F"></path></svg>