<svg xmlns="http://www.w3.org/2000/svg" width="114" height="114" viewBox="0 0 114 114" fill="none"><path d="M57.0002 23.2654C50.3281 23.2654 43.8059 25.2439 38.2583 28.9507C32.7107 32.6575 28.3869 37.9261 25.8336 44.0902C23.2803 50.2544 22.6123 57.0373 23.9139 63.5811C25.2156 70.125 28.4285 76.1359 33.1463 80.8537C37.8642 85.5716 43.8751 88.7845 50.4189 90.0861C56.9628 91.3878 63.7456 90.7197 69.9098 88.1664C76.074 85.6131 81.3426 81.2893 85.0494 75.7417C88.7562 70.1941 90.7347 63.6719 90.7347 56.9998C90.7242 48.0561 87.1667 39.4817 80.8426 33.1575C74.5184 26.8333 65.9439 23.2758 57.0002 23.2654ZM58.8743 45.7044C62.2527 45.6245 65.6199 45.2843 68.9459 44.6868C69.6192 48.1278 69.9954 51.6203 70.0704 55.1257H58.8743V45.7044ZM55.1261 55.1257H43.9262C44.0012 51.6203 44.3774 48.1278 45.0507 44.6868C48.378 45.2845 51.7464 45.6247 55.1261 45.7044V55.1257ZM40.163 55.1257H27.0908C27.4171 49.8441 29.1457 44.745 32.0985 40.3538C35.0492 41.9064 38.1793 43.0909 41.4186 43.8809C40.67 47.5849 40.2498 51.3478 40.163 55.1257ZM40.163 58.874C40.2498 62.6519 40.67 66.4148 41.4186 70.1188C38.179 70.9112 35.0489 72.0982 32.0985 73.6534C29.1445 69.26 27.4158 64.1582 27.0908 58.874H40.163ZM43.9262 58.874H55.1261V68.2953C51.7477 68.3752 48.3805 68.7154 45.0544 69.3129C44.3799 65.872 44.0025 62.3795 43.9262 58.874ZM58.8743 58.874H70.0742C69.9992 62.3794 69.6229 65.8719 68.9497 69.3129C65.6224 68.7152 62.2539 68.375 58.8743 68.2953V58.874ZM73.8374 58.874H86.9095C86.5833 64.1556 84.8547 69.2547 81.9018 73.6459C78.9512 72.0933 75.8211 70.9088 72.5818 70.1188C73.3304 66.4148 73.7506 62.6519 73.8374 58.874ZM73.8374 55.1257C73.7506 51.3478 73.3304 47.5849 72.5818 43.8809C75.8214 43.0885 78.9515 41.9014 81.9018 40.3463C84.8559 44.7397 86.5846 49.8415 86.9095 55.1257H73.8374ZM79.6135 37.3345C77.0885 38.5892 74.4323 39.5603 71.6934 40.2301C70.6014 35.9633 68.6836 31.952 66.0485 28.423C71.3009 30.0953 75.9932 33.1779 79.6135 37.3345ZM68.0426 41.0285C65.0138 41.5646 61.9492 41.8741 58.8743 41.9543V27.3885C62.4464 28.6891 65.923 33.5919 68.0426 41.0285ZM55.1261 27.3885V41.9524C52.0512 41.8722 48.9866 41.5627 45.9578 41.0266C48.0774 33.5919 51.554 28.6891 55.1261 27.3885ZM47.9519 28.4136C45.3167 31.9426 43.399 35.9539 42.307 40.2207C39.5681 39.5509 36.9119 38.5798 34.3869 37.3252C38.0074 33.1692 42.6997 30.0854 47.9519 28.4136ZM34.3869 76.6652C36.9119 75.4105 39.5681 74.4394 42.307 73.7696C43.399 78.0364 45.3167 82.0477 47.9519 85.5767C42.6994 83.9044 38.0071 80.8218 34.3869 76.6652ZM45.9578 72.9712C48.9866 72.4351 52.0512 72.1256 55.1261 72.0454V86.6112C51.554 85.3106 48.0774 80.4078 45.9578 72.9712ZM58.8743 86.6112V72.0454C61.9492 72.1256 65.0138 72.4351 68.0426 72.9712C65.923 80.4078 62.4464 85.3106 58.8743 86.6112ZM66.0485 85.586C68.6836 82.0571 70.6014 78.0457 71.6934 73.779C74.4323 74.4488 77.0885 75.4199 79.6135 76.6745C75.993 80.8305 71.3007 83.9143 66.0485 85.586Z" fill="#F03F3F"></path><path d="M55.1254 7.1742V19.5173H58.8737V7.1742L63.6246 11.9251L66.2746 9.2751L56.9995 0L47.7244 9.2751L50.3745 11.9251L55.1254 7.1742Z" fill="#F03F3F"></path><path d="M19.517 22.1676L29.1688 31.8194L31.8188 29.1694L22.167 19.5176H28.8877V15.7693H15.7687V28.8882H19.517V22.1676Z" fill="#F03F3F"></path><path d="M19.5173 58.8742V55.1259H7.1742L11.9251 50.375L9.2751 47.725L0 57.0001L9.2751 66.2752L11.9251 63.6252L7.1742 58.8742H19.5173Z" fill="#F03F3F"></path><path d="M29.1688 82.181L19.517 91.8328V85.1122H15.7687V98.2311H28.8877V94.4829H22.167L31.8188 84.8311L29.1688 82.181Z" fill="#F03F3F"></path><path d="M58.8737 106.826V94.4828H55.1254V106.826L50.3745 102.075L47.7244 104.725L56.9995 114L66.2746 104.725L63.6246 102.075L58.8737 106.826Z" fill="#F03F3F"></path><path d="M94.4826 91.8328L84.8308 82.181L82.1808 84.8311L91.8326 94.4829H85.1119V98.2311H98.2309V85.1122H94.4826V91.8328Z" fill="#F03F3F"></path><path d="M104.725 47.725L102.075 50.375L106.826 55.1259H94.4825V58.8742H106.826L102.075 63.6252L104.725 66.2752L114 57.0001L104.725 47.725Z" fill="#F03F3F"></path><path d="M84.8308 31.8194L94.4826 22.1676V28.8882H98.2309V15.7693H85.1119V19.5176H91.8326L82.1808 29.1694L84.8308 31.8194Z" fill="#F03F3F"></path></svg>