<svg xmlns="http://www.w3.org/2000/svg" width="66" height="66" viewBox="0 0 66 66" fill="none"><circle cx="33" cy="33" r="33" fill="#FFD7D7"></circle><path fill-rule="evenodd" clip-rule="evenodd" d="M36.9109 37.3941C38.8497 36.7779 39.7147 37.5401 40.1968 38.3448C41.9658 37.8916 42.6746 38.7107 43.0336 39.1003C43.1049 39.1479 43.29 39.4017 43.6677 39.3388C45.059 39.1054 45.9851 40.0434 46.0122 40.9457L46.2558 49.0683C46.2745 49.6641 46.1854 50.1768 45.9919 50.7405L45.2602 52.877C45.0259 53.5603 44.4113 54 43.6881 54H34.7192C34.1174 54 33.6005 53.7063 33.2923 53.1894L30.6414 48.7525C30.3044 48.188 30.0667 47.677 29.852 47.0557L27.7435 40.9661C26.5746 38.1089 29.8605 36.9358 31.0047 39.3932L33.2448 44.0652L32.435 29.4643C32.2466 27.1334 35.0647 26.894 35.3279 29.1527L36.2429 37.0249C36.293 37.4536 36.6979 37.4621 36.9109 37.3941ZM47.3823 23.0292C51.1112 23.0292 54.1348 26.0519 54.1348 29.7817C54.1348 33.5107 51.1112 36.5343 47.3823 36.5343C43.6524 36.5343 40.6297 33.5107 40.6297 29.7817C40.6297 26.0519 43.6524 23.0292 47.3823 23.0292ZM18.7525 23.0292C22.4823 23.0292 25.5051 26.0519 25.5051 29.7817C25.5051 33.5107 22.4823 36.5343 18.7525 36.5343C15.0236 36.5343 12 33.5107 12 29.7817C12 26.0519 15.0236 23.0292 18.7525 23.0292ZM34.2396 12.1038C37.9126 12.7514 40.3649 16.2538 39.7172 19.9267C39.0704 23.5996 35.5672 26.0511 31.8951 25.4043C28.2222 24.7566 25.7699 21.2543 26.4176 17.5813C27.0652 13.9084 30.5676 11.4561 34.2396 12.1038ZM30.5828 17.8895L32.1523 19.4157L35.3448 15.5314C35.4832 15.3633 35.7395 15.3506 35.9042 15.4949L36.7921 16.2724C36.9568 16.4159 36.9695 16.6646 36.8295 16.8318L32.9757 21.4376C32.5173 21.9614 31.9877 21.9665 31.5335 21.5251L29.2077 19.3053C29.0498 19.1551 29.0473 18.9013 29.1992 18.7451L30.0218 17.8971C30.0981 17.8182 30.1915 17.7783 30.301 17.7766C30.4105 17.7749 30.5047 17.8131 30.5828 17.8895Z" fill="#F03F3F"></path></svg>