<svg width="48" height="38" viewBox="0 0 48 38" fill="none" xmlns="http://www.w3.org/2000/svg">
<path fill-rule="evenodd" clip-rule="evenodd" d="M26.784 24.5071H33.3962C41.7476 24.5071 47.514 18.89 47.514 10.8368C47.514 4.22538 43.1394 0 36.2795 0H22.7085L20.7299 12.5141H14.1177C5.7664 12.5141 0 18.1313 0 26.1844C1.07499e-06 32.7959 4.37452 37.0212 11.2346 37.0212H24.8054L26.784 24.5071ZM19.6296 19.4735L17.9555 30.0618H13.2727C9.89237 30.0618 8.05308 28.3717 8.05308 25.389C8.05308 21.6111 10.4889 19.4735 14.7142 19.4735H19.6296ZM27.8844 17.5477H32.7997C37.0251 17.5477 39.4609 15.4102 39.4609 11.6322C39.4609 8.64953 37.6216 6.95942 34.2414 6.95942H29.5585L27.8844 17.5477Z" fill="#FF0000"/>
</svg>
