<svg xmlns="http://www.w3.org/2000/svg" width="87" height="86" viewBox="0 0 87 86" fill="none"><path d="M78.5141 45.7909C79.558 47.6131 80.6111 49.4354 81.6549 51.2576C81.8106 51.5231 81.9663 51.7887 82.1219 52.0634C82.1677 52.1458 82.2135 52.2282 82.2501 52.3106C82.4516 52.6677 82.1769 52.0359 82.2318 52.2831C82.2593 52.3839 82.2959 52.4754 82.3234 52.5762C82.3325 52.6036 82.3966 52.9333 82.3966 52.9333C82.3875 52.8509 82.3692 52.7685 82.36 52.686C82.3692 52.7685 82.3692 52.8509 82.3783 52.9241C82.3783 53.0432 82.3692 53.1622 82.3692 53.2904C82.36 53.6475 82.4699 52.9058 82.3692 53.2812C82.3417 53.4003 82.3142 53.5193 82.2776 53.6292C82.2684 53.6658 82.2501 53.7024 82.241 53.7391C82.1677 53.9222 82.186 53.8947 82.2959 53.6384C82.3325 53.675 82.0304 54.1237 82.0029 54.1694C81.8014 54.5266 82.2776 53.8947 81.9937 54.1878C81.9113 54.2793 81.8289 54.3709 81.7374 54.4533C81.7099 54.4808 81.3985 54.7372 81.6366 54.554C81.8655 54.3801 81.4443 54.6639 81.3985 54.7005C81.1971 54.8196 80.9956 54.9295 80.7942 55.0485C78.9079 56.1382 77.0033 57.2004 75.1261 58.3175C73.368 59.3522 72.3241 61.2019 72.3058 63.2439C72.2966 64.2237 72.3058 65.2034 72.3058 66.1924V69.846C72.3058 69.9192 72.3241 70.7617 72.2875 70.7617C72.2966 70.6792 72.3058 70.5968 72.3241 70.5236C72.315 70.606 72.2966 70.6884 72.2783 70.7617C72.26 70.8441 72.2417 70.9173 72.2142 70.9997C72.086 71.4209 72.2142 70.9997 72.2326 71.0089C72.2417 71.018 72.086 71.3019 72.0677 71.3294C72.0586 71.3477 71.8846 71.6315 71.8754 71.6315C71.8571 71.6224 72.1776 71.2836 71.9487 71.54C71.8663 71.6224 71.793 71.714 71.7106 71.7964C71.6557 71.8513 71.6007 71.9062 71.5366 71.952C71.3901 72.0802 71.4176 72.0528 71.6282 71.8788C71.6465 71.9062 71.152 72.1626 71.1154 72.181C70.7583 72.3824 71.5092 72.0711 71.1154 72.181C70.9964 72.2084 70.8865 72.2542 70.7675 72.2817C70.7308 72.2908 70.685 72.3 70.6484 72.3092C70.447 72.3458 70.4836 72.3366 70.7675 72.3C70.7675 72.3092 70.5019 72.3183 70.5202 72.3183H65.4016C64.5774 72.3183 63.735 72.2725 62.9017 72.3275C60.8689 72.474 59.2207 73.5728 58.2043 75.3218C57.0871 77.263 55.97 79.1951 54.8529 81.1363C54.8071 81.2188 54.7613 81.3012 54.7064 81.3836C54.6606 81.466 54.6056 81.5392 54.5598 81.6217C54.3492 81.9879 54.8254 81.347 54.5415 81.6491C54.4591 81.7407 54.3767 81.8323 54.2851 81.9147C54.2577 81.9421 54.221 81.9696 54.1936 81.9971C54.0379 82.1253 54.0654 82.107 54.276 81.933C54.276 81.9696 54.0013 82.107 53.9738 82.1253C53.9463 82.1436 53.6716 82.3084 53.6533 82.2901C53.6258 82.2626 54.0379 82.1619 53.754 82.2352C53.635 82.2626 53.5251 82.3084 53.4061 82.3359C53.3695 82.345 53.3237 82.3542 53.287 82.3634C53.0856 82.4 53.1314 82.3908 53.4152 82.3542C53.4244 82.3634 52.6918 82.3725 52.6918 82.3634C52.7743 82.3725 52.8567 82.3908 52.9391 82.4C52.8567 82.3908 52.7743 82.3725 52.701 82.3542C52.582 82.3267 52.4629 82.281 52.3439 82.2535C51.941 82.1528 52.6827 82.4549 52.3164 82.2443C52.2432 82.1985 52.1608 82.1619 52.0875 82.1253C52.0234 82.0887 51.9685 82.052 51.9044 82.0246C51.5289 81.8048 51.1535 81.585 50.7689 81.3744C49.6151 80.706 48.4614 80.0467 47.3076 79.3782C46.3828 78.8471 45.4213 78.1787 44.3683 77.9223C42.9398 77.5743 41.4747 77.7941 40.1928 78.4992C39.973 78.6182 39.7532 78.7556 39.5335 78.8838C38.4346 79.5156 37.3267 80.1566 36.2278 80.7884C35.4587 81.2279 34.6987 81.6858 33.9203 82.1161C33.8196 82.1711 33.7189 82.2169 33.6273 82.2718C33.3984 82.3908 34.0485 82.1528 33.6548 82.2535C33.5357 82.281 33.4167 82.3267 33.2977 82.3542C33.261 82.3634 33.2152 82.3725 33.1786 82.3817C32.9772 82.4183 33.0138 82.4091 33.3068 82.3634C33.3068 82.3634 33.0321 82.3817 33.0046 82.3817C32.9039 82.3817 32.8032 82.3725 32.7025 82.3725C32.501 82.3542 32.5468 82.3634 32.8307 82.3908C32.7482 82.3817 32.675 82.3634 32.5926 82.3451C32.4735 82.3176 32.3637 82.281 32.2446 82.2443C31.8967 82.1528 32.3637 82.281 32.3453 82.2993C32.327 82.3176 31.7135 81.9879 31.7135 81.9421C31.7685 81.9879 31.8326 82.0337 31.8875 82.0795C31.8234 82.0246 31.7593 81.9788 31.7044 81.9147C31.6403 81.8597 31.5853 81.8048 31.5304 81.7407C31.5029 81.7132 31.4754 81.6766 31.448 81.6491C31.3198 81.5026 31.3381 81.5209 31.5029 81.7224C31.4297 81.6858 31.3381 81.466 31.2923 81.4019C30.2118 79.5888 29.1862 77.7392 28.1332 75.9169C27.4464 74.7266 26.6956 73.5819 25.4045 72.9501C24.1683 72.3458 22.9413 72.3183 21.6227 72.3183H15.625C15.5425 72.3183 15.0755 72.3641 15.3686 72.3183C15.625 72.2817 15.3594 72.3092 15.2495 72.2908C15.1305 72.2634 15.0206 72.2176 14.9016 72.1901C14.5078 72.0894 15.2495 72.3916 14.9016 72.1901C14.8192 72.1443 14.7276 72.0985 14.6452 72.0528C14.6177 72.0344 14.3888 71.8971 14.3979 71.8971C14.3979 71.8971 14.7184 72.181 14.3979 71.8879C14.3155 71.8055 14.224 71.7231 14.1507 71.6407C14.0958 71.5858 14.05 71.5217 13.995 71.4576C14.1507 71.659 14.1873 71.7048 14.1049 71.5949C14.0866 71.54 13.7478 71.0455 13.7844 71.0272C13.7936 71.018 13.9309 71.4393 13.8027 71.018C13.7753 70.9173 13.7478 70.8257 13.7295 70.725C13.6471 70.3496 13.7203 70.7891 13.7295 70.7891C13.7112 70.7891 13.7112 70.4412 13.7112 70.4137V70.3587C13.702 69.3973 13.7112 68.445 13.7112 67.4835V63.7933C13.7112 63.5094 13.7203 63.2164 13.702 62.9325C13.6013 61.5682 13.0794 60.2954 12.127 59.3064C11.3945 58.5464 10.3964 58.0703 9.49903 57.5483C8.35442 56.889 7.20066 56.2206 6.05606 55.5613C5.66231 55.3324 5.25941 55.1034 4.86567 54.8745C4.79241 54.8287 4.71 54.7921 4.63674 54.7463C4.57265 54.7097 4.33457 54.609 4.29794 54.5357C4.29794 54.5449 4.62759 54.8379 4.3712 54.5907L4.02324 54.2427C3.73937 53.9497 4.21553 54.5815 4.01408 54.2244C3.95914 54.1145 3.88588 54.0229 3.83094 53.9131C3.81263 53.8856 3.72106 53.7024 3.72106 53.6933C3.74853 53.7665 3.78516 53.8398 3.81263 53.9039C3.78516 53.8306 3.75769 53.7574 3.73937 53.675C3.70275 53.5559 3.68443 53.4461 3.64781 53.327C3.53792 52.9333 3.64781 53.7482 3.64781 53.3362C3.64781 53.2538 3.63865 53.1714 3.63865 53.0981C3.63865 53.0157 3.63865 52.9333 3.64781 52.86C3.66612 52.6586 3.65696 52.6952 3.62033 52.9882C3.61118 52.9882 3.776 52.3839 3.78516 52.3289C3.84926 52.0817 3.56539 52.7227 3.76684 52.3564C3.80347 52.2831 3.84926 52.2007 3.88588 52.1275C3.92251 52.0542 3.9683 51.9901 4.00492 51.9169C5.13121 49.9665 6.24835 48.0252 7.37464 46.0748C8.43683 44.2343 8.55587 42.119 7.51199 40.2327C7.09078 39.4819 6.65125 38.7402 6.22088 37.9893C5.5799 36.8813 4.93892 35.7734 4.3071 34.6562L3.89504 33.942C3.84926 33.8596 3.72106 33.6947 3.72106 33.594C3.74853 33.6581 3.78516 33.7314 3.81263 33.7955C3.78516 33.7131 3.75769 33.6398 3.73022 33.5574C3.69359 33.4384 3.67528 33.3193 3.63865 33.2003C3.55624 32.8523 3.67528 33.3193 3.65696 33.3285C3.65696 33.3285 3.63865 32.9897 3.63865 32.9622C3.63865 32.9347 3.67528 32.6142 3.65696 32.6051C3.61118 32.8889 3.61118 32.9347 3.64781 32.7333C3.66612 32.6509 3.68443 32.5776 3.70275 32.4952C3.72106 32.4219 3.74853 32.3395 3.776 32.2663C3.87673 31.8725 3.57455 32.6142 3.776 32.2571C3.83094 32.1472 3.88588 32.0465 3.94998 31.9366C4.05071 31.7627 4.243 31.6802 3.94082 31.9092C4.08733 31.7993 4.23384 31.5978 4.36204 31.4605C4.65506 31.1675 4.03239 31.6436 4.38951 31.4422L4.60927 31.3048C4.83819 31.1675 5.07627 31.0393 5.31435 30.9019C6.40401 30.2792 7.49368 29.6474 8.57419 29.0248C9.34336 28.5852 10.1217 28.1457 10.8817 27.6879C12.6398 26.644 13.6745 24.7943 13.6837 22.7523C13.6929 20.5455 13.6837 18.3387 13.6837 16.1228V15.555C13.6837 15.491 13.6837 15.4269 13.6929 15.3628C13.7112 15.1613 13.702 15.1979 13.6745 15.4818C13.6745 15.4818 13.8211 14.7767 13.8668 14.7767C13.9035 14.7859 13.6837 15.1338 13.8211 14.8866C13.876 14.7859 13.9309 14.676 13.995 14.5753C14.224 14.209 13.9859 14.5661 13.9767 14.557C13.9676 14.5478 14.1965 14.3097 14.2056 14.2914C14.2697 14.2181 14.3522 14.1541 14.4163 14.09C14.7367 13.7786 14.1599 14.2273 14.462 14.0533C14.5628 13.9984 14.6635 13.9251 14.7642 13.8702C15.1488 13.6687 14.7642 13.861 14.7642 13.861C14.7551 13.8336 15.3228 13.7054 15.3411 13.6962C14.9199 13.6962 15.744 13.5863 15.3411 13.6962C15.3869 13.6962 15.5517 13.6871 15.5975 13.6871H20.6704C21.5128 13.6871 22.3735 13.742 23.216 13.6687C25.2213 13.4856 26.8055 12.3593 27.8036 10.6378C28.3713 9.64888 28.939 8.65995 29.5067 7.68016C30.0561 6.72785 30.6055 5.76638 31.155 4.81407C31.1916 4.74997 31.2282 4.67672 31.274 4.61262C31.3015 4.55768 31.4846 4.33792 31.4846 4.28297C31.4388 4.33792 31.393 4.39286 31.3564 4.45695C31.4113 4.39286 31.4663 4.32876 31.5212 4.27382C31.5853 4.20972 31.7868 3.94417 31.8783 3.94417C31.8234 3.98996 31.7593 4.03574 31.7044 4.08152C31.7502 4.0449 31.8051 4.00827 31.86 3.9808C31.9516 3.93501 32.034 3.88007 32.1164 3.82513L32.2263 3.77019C32.4094 3.68778 32.3728 3.69694 32.1164 3.81598C32.1164 3.79766 32.4369 3.71525 32.4552 3.70609C32.5468 3.67862 32.6567 3.67862 32.7482 3.642C32.9772 3.55043 32.2904 3.66031 32.675 3.65115C32.794 3.65115 32.9131 3.642 33.0413 3.642C33.1237 3.642 33.2061 3.65115 33.2793 3.66031C32.9955 3.61453 32.9497 3.61453 33.1511 3.642C33.2244 3.66031 33.7189 3.73356 33.7463 3.80682C33.6822 3.77935 33.609 3.75188 33.5449 3.71525C33.6181 3.75188 33.7006 3.78851 33.7738 3.82513C33.8288 3.8526 33.8562 3.87092 33.8928 3.88923C33.9753 3.93501 34.0485 3.9808 34.1309 4.02658C34.5338 4.2555 34.9367 4.49358 35.3396 4.7225C36.4934 5.39095 37.6472 6.05025 38.8009 6.7187C39.7441 7.26811 40.733 7.93655 41.8227 8.13801C43.2054 8.38524 44.5514 8.19295 45.7876 7.50618C46.0257 7.37799 46.2637 7.23148 46.4927 7.10328C48.3515 6.03193 50.192 4.94227 52.06 3.89839C52.0967 3.88007 52.1241 3.86176 52.1791 3.83429L52.2889 3.77935C52.4721 3.69694 52.4446 3.70609 52.1974 3.81598C52.234 3.73356 52.6918 3.66947 52.7926 3.65115C53.2046 3.55958 52.3714 3.65115 52.7926 3.66031C52.9116 3.66031 53.0307 3.65115 53.1588 3.66031C53.1955 3.66031 53.2413 3.66031 53.2779 3.66947C53.4793 3.68778 53.4336 3.67862 53.1497 3.65115C53.1588 3.66947 53.4793 3.72441 53.4977 3.72441C53.5251 3.73356 53.8456 3.81598 53.8365 3.83429C53.7632 3.80682 53.6899 3.77019 53.6167 3.74272C53.6899 3.77935 53.7632 3.80682 53.8365 3.8526C53.9463 3.90754 54.0471 3.9808 54.1478 4.03574C54.3675 4.15478 54.1478 3.97164 54.0745 3.96249C54.1661 3.97164 54.5873 4.39286 54.5965 4.48443C54.5507 4.42948 54.5049 4.37454 54.4683 4.31045C54.5141 4.3837 54.569 4.4478 54.6148 4.52105C54.6423 4.55768 54.6606 4.59431 54.688 4.64009C55.1276 5.37264 55.5396 6.11434 55.9608 6.85605C56.6018 7.96403 57.2428 9.072 57.8746 10.18C58.5797 11.3978 59.358 12.5333 60.6858 13.1468C61.9128 13.7145 63.1215 13.7237 64.4218 13.7237H70.4653C70.5477 13.7237 70.6301 13.7328 70.7125 13.742C70.4286 13.6962 70.392 13.6962 70.5935 13.7328C70.6393 13.742 71.1795 13.8702 71.1704 13.8977C71.1704 13.8977 70.7858 13.7054 71.1704 13.9068C71.2711 13.9618 71.3718 14.0259 71.4725 14.09C71.8205 14.2822 71.1887 13.8152 71.4817 14.09C71.5366 14.1449 71.6007 14.1907 71.6557 14.2456C71.7381 14.328 71.8205 14.4196 71.8937 14.502C72.0219 14.6485 71.9945 14.621 71.8205 14.4104C71.8663 14.4745 71.9121 14.5386 71.9487 14.6119C72.0128 14.7126 72.0586 14.8225 72.1227 14.9232C72.26 15.1705 72.0403 14.8225 72.0769 14.8133C72.1227 14.8042 72.2692 15.5093 72.2692 15.5184C72.26 15.436 72.2509 15.3536 72.2326 15.2803C72.2417 15.3628 72.2509 15.4452 72.2509 15.5276V15.7473C72.26 17.9541 72.2509 20.1609 72.2509 22.3769C72.2509 24.0892 72.7087 25.7649 74.0273 26.9462C74.7873 27.6329 75.7213 28.0908 76.6095 28.6035C77.745 29.2628 78.8804 29.913 80.025 30.5723C80.4004 30.792 80.785 31.0118 81.1605 31.2316L81.3528 31.3414C81.3894 31.3598 81.4169 31.3781 81.4626 31.4055C81.4993 31.433 81.5359 31.4513 81.5725 31.4788C81.7374 31.5978 81.7099 31.5704 81.5084 31.4147C81.5908 31.4239 82.0212 31.8451 82.0304 31.9366C81.9846 31.8817 81.9388 31.8176 81.893 31.7627C81.9388 31.8268 81.9846 31.9 82.0304 31.9641C82.0945 32.0648 82.1494 32.1747 82.2044 32.2846C82.4058 32.6417 82.1036 31.9 82.2044 32.2938C82.2227 32.367 82.2501 32.4494 82.2776 32.5227C82.2868 32.5501 82.3417 32.8706 82.3509 32.8706C82.3417 32.7882 82.3325 32.7058 82.3142 32.6234C82.3234 32.7058 82.3325 32.7791 82.3325 32.8615C82.3417 32.9805 82.3234 33.0996 82.3325 33.2277C82.3417 33.6123 82.4241 32.8706 82.3417 33.2277L82.2593 33.5849C82.2501 33.6215 82.2318 33.6673 82.2227 33.7039C82.1494 33.887 82.1677 33.8596 82.2684 33.6215C82.2684 33.7222 82.1403 33.887 82.0945 33.9695C82.0487 34.0519 82.0029 34.1251 81.9571 34.2075C81.3894 35.1873 80.8308 36.1671 80.2631 37.156C79.7228 38.0992 79.1734 39.0423 78.6332 39.9855C77.6076 41.7802 77.4703 43.8863 78.5141 45.7909C78.972 46.6334 80.2082 46.9722 81.0231 46.4502C81.8747 45.9008 82.1769 44.8478 81.6824 43.9413C81.6458 43.8772 81.4626 43.4285 81.6092 43.8314C81.5542 43.6849 81.5084 43.5475 81.4718 43.401C81.4626 43.3552 81.4535 43.3003 81.4352 43.2545C81.3985 43.0439 81.3985 43.0622 81.4352 43.3003C81.3802 43.1996 81.4352 42.9615 81.426 42.8516C81.426 42.7783 81.4169 42.467 81.4077 42.8974C81.4169 42.76 81.4626 42.5952 81.5084 42.4578C81.5267 42.3846 81.7282 41.9542 81.5359 42.3297C81.5817 42.2289 81.6275 42.1465 81.6824 42.0549C81.8106 41.8169 81.9571 41.5788 82.0945 41.3407C82.7446 40.2144 83.3856 39.0973 84.0357 37.971C84.4569 37.2384 84.8965 36.5059 85.3085 35.7642C86.5264 33.5757 86.215 30.7646 84.3928 28.9881C83.6511 28.2556 82.6713 27.7886 81.774 27.2666C80.6019 26.589 79.4298 25.9206 78.2578 25.243C77.8823 25.0324 77.5069 24.8126 77.1406 24.602C77.0857 24.5654 77.0216 24.5379 76.9666 24.5013C76.9117 24.4647 76.7927 24.3914 76.7377 24.3548C76.3714 24.135 76.9849 24.6203 76.6919 24.3181C76.6278 24.254 76.5637 24.1991 76.4996 24.135C76.4355 24.0709 76.3806 24.0068 76.3257 23.9427C76.4722 24.1442 76.4905 24.1625 76.3806 23.9977C76.3165 23.8878 76.2432 23.7779 76.1791 23.668C76.1608 23.6314 76.1425 23.5948 76.1242 23.549C76.0418 23.3658 76.0509 23.3933 76.1517 23.6314C76.2249 23.5032 75.8953 23.1461 75.9777 22.9996C75.9869 23.0728 75.996 23.1461 76.0052 23.2285C75.996 23.1369 75.9869 23.0545 75.9869 22.9629V17.597C75.9869 16.5715 76.0509 15.5276 75.8678 14.5112C75.4283 12.0388 73.2123 10.2624 70.7766 10.0518C69.9159 9.97853 69.0368 10.0335 68.1761 10.0335H63.1856C63.094 10.0335 62.8651 10.0609 62.7827 10.0152C62.8559 10.0243 62.9292 10.0335 63.0116 10.0426C62.9292 10.0243 62.8376 10.006 62.7552 9.98769C62.6728 9.96937 62.5904 9.93275 62.508 9.91443C62.0959 9.82286 62.8285 10.1067 62.4622 9.90528C62.3523 9.84118 62.2333 9.78624 62.1234 9.71298C62.0501 9.6672 61.9769 9.62141 61.9128 9.56647C62.1142 9.72214 62.1326 9.74045 61.9769 9.61226C61.9036 9.52984 61.8212 9.46575 61.748 9.38334C61.6472 9.28261 61.4366 9.16357 61.7388 9.40165C61.6472 9.32839 61.574 9.15442 61.519 9.05369C61.4641 8.97128 61.4183 8.87971 61.3725 8.7973C61.1345 8.38524 60.9055 7.98234 60.6675 7.57028C59.9899 6.39821 59.3214 5.22613 58.6438 4.06321C58.1127 3.14753 57.6274 2.13112 56.8124 1.4352C54.9627 -0.16725 52.3897 -0.451112 50.247 0.748434C48.3332 1.81978 46.4469 2.93692 44.5423 4.03574C44.3133 4.17309 44.0753 4.30129 43.8463 4.43864C43.4434 4.66756 44.176 4.37454 43.7273 4.49358C43.5808 4.53021 43.4343 4.56684 43.2878 4.61262C42.8482 4.73166 43.5258 4.63094 43.2603 4.61262C43.1413 4.60346 43.0039 4.61262 42.8849 4.61262C42.4362 4.64009 43.2145 4.7225 42.775 4.60346C42.6285 4.56684 42.482 4.52105 42.3355 4.48443C41.8868 4.37454 42.6193 4.65841 42.2164 4.42948C42.1798 4.41117 42.1249 4.37454 42.0791 4.35623C41.3007 3.92586 40.5316 3.46802 39.7624 3.01933C38.6636 2.38751 37.5556 1.74653 36.4568 1.11471C36.237 0.986512 36.0172 0.858316 35.7883 0.73012C34.6071 0.0708279 33.3251 -0.130623 31.9974 0.0799845C30.2301 0.363847 28.8566 1.54508 27.9867 3.05596C27.4098 4.06321 26.8238 5.07046 26.2469 6.07772C25.7066 7.02087 25.1572 7.96403 24.617 8.90718C24.5895 8.96212 24.5529 9.01706 24.5254 9.072C24.4705 9.16357 24.4064 9.25514 24.3423 9.35587C24.2141 9.57563 24.6444 9.06285 24.3423 9.34671C24.2507 9.43828 24.15 9.52985 24.0676 9.62141C23.9119 9.74961 23.9394 9.74045 24.1317 9.57563C24.0584 9.63057 23.9943 9.67636 23.9211 9.72214C23.8112 9.79539 23.6921 9.85033 23.5823 9.91443C23.3625 10.0335 23.6097 9.96937 23.6647 9.88696C23.628 9.9419 23.3533 9.98769 23.2892 10.006C23.2434 10.0152 23.2068 10.0243 23.161 10.0335C22.9596 10.0701 22.9871 10.0701 23.2618 10.0335C23.1427 10.1067 22.8955 10.0518 22.749 10.0518C20.5147 10.0609 18.2896 10.0518 16.0553 10.0518C14.3522 10.0518 12.6581 10.5646 11.5044 11.9015C10.6436 12.8996 10.1675 14.0625 10.0759 15.3811C10.0576 15.6649 10.0668 15.9488 10.0668 16.2235C10.0668 18.4211 10.0942 20.6096 10.0668 22.8073V22.9812C10.0668 23.027 10.0576 23.0728 10.0576 23.1186C10.0393 23.3292 10.0393 23.2926 10.0759 23.027C10.0942 23.0453 10.021 23.2834 10.021 23.2834C10.0027 23.3475 9.95687 23.6222 9.90193 23.6588L9.98434 23.4666C9.94771 23.549 9.91109 23.6222 9.87446 23.6955C9.81036 23.8145 9.73711 23.9152 9.67301 24.0251C9.48071 24.3548 9.89277 23.8145 9.63638 24.0618C9.54481 24.1533 9.44409 24.2449 9.36167 24.3365C9.06866 24.6386 9.68216 24.1625 9.31589 24.3731C9.23348 24.4189 9.15107 24.4738 9.06866 24.5287C8.97709 24.5837 8.87636 24.6386 8.78479 24.6936C7.7867 25.2705 6.77945 25.8473 5.78135 26.4242C4.82904 26.9736 3.88588 27.5139 2.93357 28.0633C1.19377 29.0705 0.0857946 30.8103 0.00338306 32.834C-0.051558 34.2716 0.571107 35.462 1.25787 36.6524C1.90801 37.7787 2.55814 38.9142 3.20828 40.0404C3.64781 40.8005 4.12396 41.5422 4.50855 42.3297C4.32541 41.9542 4.51771 42.3846 4.53602 42.4578C4.56349 42.5586 4.5818 42.6501 4.60927 42.7509C4.72831 43.1904 4.63674 42.4029 4.61843 42.8607C4.60927 42.9706 4.66422 43.2087 4.60927 43.3094L4.63674 43.1171C4.61843 43.2179 4.60012 43.3094 4.5818 43.4102C4.54518 43.5567 4.49939 43.7032 4.44445 43.8405C4.55433 43.5292 4.43529 43.8405 4.36204 43.9687C4.22469 44.2251 4.06902 44.4724 3.92251 44.7287C2.86032 46.5693 1.77065 48.3915 0.745087 50.2503C-0.491087 52.4754 -0.152283 55.4239 1.78897 57.1546C2.54898 57.823 3.47383 58.2809 4.34373 58.7845C5.5158 59.4621 6.67872 60.1306 7.8508 60.8082C8.20791 61.0188 8.57419 61.2202 8.9313 61.4308C8.97709 61.4583 9.03203 61.4858 9.07781 61.5132C9.16938 61.5682 9.34336 61.6414 9.41662 61.733C9.15107 61.3942 9.35252 61.6964 9.44409 61.7879C9.50818 61.8429 9.69132 61.9894 9.70963 62.0718C9.56312 61.8703 9.54481 61.852 9.65469 62.0169C9.69132 62.0718 9.72795 62.1267 9.75542 62.1817C9.81036 62.2733 9.85614 62.374 9.91108 62.4655C10.1125 62.8318 9.81952 62.0993 9.92024 62.5113C9.94771 62.6395 9.98434 62.7677 10.021 62.8868C10.1492 63.308 10.0118 62.4839 10.0301 62.9234C10.0393 63.0607 10.0393 63.1981 10.0393 63.3354V68.5457C10.0393 69.5713 9.97518 70.6151 10.1766 71.6315C10.6803 74.1222 13.0061 75.8986 15.4968 75.981C17.6211 76.0543 19.7638 75.981 21.8882 75.981H22.9687C23.0145 75.981 23.0603 75.9902 23.1061 75.9902C23.3167 76.0085 23.2801 76.0085 23.0145 75.9719C23.0695 75.9444 23.335 76.0451 23.3991 76.0635C23.5182 76.1001 23.8936 76.1276 23.4541 76.0543C23.5639 76.0726 23.7104 76.1733 23.802 76.2283L24.0218 76.3656C24.1866 76.4847 24.1683 76.4664 23.9668 76.3107C24.0309 76.3656 24.095 76.4206 24.1591 76.4847C24.2232 76.5396 24.4064 76.6861 24.4247 76.7685C24.3789 76.7136 24.3423 76.6587 24.2965 76.6037C24.3514 76.677 24.3972 76.7502 24.443 76.8235L24.5254 76.9608C24.5803 77.0524 24.6353 77.1531 24.6902 77.2447C24.9466 77.6842 25.203 78.1329 25.4594 78.5724L27.4373 82.0062C28.005 82.986 28.5178 84.0024 29.4152 84.7258C31.2648 86.2001 33.7372 86.4107 35.8066 85.2569C36.6491 84.7808 37.4915 84.2863 38.3248 83.801C39.3961 83.1875 40.4675 82.5648 41.5388 81.9513C41.667 81.8781 41.8044 81.7956 41.9326 81.7224C41.9692 81.7041 42.0058 81.6858 42.0333 81.6583C42.0791 81.6308 42.4728 81.4385 42.2439 81.5393C41.9875 81.6491 42.4453 81.4752 42.4545 81.4752C42.5919 81.4385 42.7475 81.3836 42.894 81.3744C42.2347 81.4019 43.7639 81.4019 43.1138 81.3744C43.3519 81.3836 43.6174 81.4843 43.8372 81.5667C43.4434 81.4294 43.8921 81.6033 43.9745 81.6583C45.8883 82.7205 47.7746 83.8468 49.6792 84.9456C49.9082 85.0738 50.1279 85.2111 50.3569 85.3302C51.5472 85.962 52.8292 86.136 54.1478 85.8979C55.8967 85.5866 57.2062 84.3779 58.0669 82.8853C59.184 80.9441 60.3012 78.9937 61.4275 77.0524C61.4733 76.97 61.519 76.8876 61.5648 76.8143C61.5923 76.7777 61.6106 76.7411 61.6381 76.7044C61.7571 76.5396 61.7388 76.5579 61.5923 76.7594C61.6106 76.677 61.8029 76.5305 61.8578 76.4755C61.8762 76.4572 62.0135 76.3107 62.0501 76.3015C61.8487 76.448 61.8304 76.4664 61.9952 76.3565L62.215 76.2191C62.3065 76.1642 62.453 76.0635 62.5629 76.0451C62.1234 76.1184 62.4897 76.0909 62.6179 76.0543C62.6728 76.036 62.9567 75.9353 63.0025 75.9627C63.0025 75.9627 62.5263 75.9902 62.9109 75.981C63.0482 75.981 63.1856 75.9719 63.3229 75.9719H70.0532C71.7839 75.9719 73.4779 75.4042 74.6133 74.0306C75.4466 73.0234 75.9228 71.833 75.9685 70.5144C75.9777 70.2489 75.9685 69.9833 75.9685 69.7086V65.9268C75.9685 65.0112 75.9594 64.1046 75.9685 63.1889C75.9685 63.0974 75.9777 63.0058 75.9777 62.9051C75.9777 62.4747 75.8678 63.2805 75.9869 62.8684C76.0235 62.7494 76.0601 62.6121 76.0876 62.493C76.1791 62.0901 75.9502 62.7311 76.0693 62.5113C76.1242 62.4198 76.1608 62.319 76.2158 62.2275C76.2616 62.1451 76.344 61.9528 76.4264 61.8978C76.2707 62.0993 76.2524 62.1176 76.3806 61.9619C76.4355 61.8978 76.4996 61.8337 76.5637 61.7696L76.6553 61.6781C76.811 61.5499 76.7835 61.559 76.5912 61.7147L76.811 61.5682C76.8568 61.5407 76.9117 61.5132 76.9575 61.4766C77.0582 61.4125 77.1681 61.3576 77.2688 61.2935C79.2192 60.1763 81.1605 59.0592 83.1109 57.9329C84.8873 56.9073 86.0685 55.021 86.0228 52.9333C85.9861 51.5506 85.3909 50.4426 84.7316 49.298L81.6549 43.9413C81.1788 43.108 79.9792 42.7509 79.146 43.282C78.3402 43.8314 78.0105 44.9027 78.5141 45.7909Z" fill="#F03F3F"></path><path d="M56.3637 27.0744L53.4518 29.9862L46.4652 36.9729L38.0134 45.4247L30.7062 52.7318C29.525 53.9131 28.3071 55.076 27.1442 56.2938L27.0893 56.3488C26.4117 57.0264 26.3567 58.2717 27.0893 58.9402C27.8218 59.6086 28.9573 59.6636 29.6807 58.9402L32.5925 56.0283L39.5792 49.0416L48.031 40.5899L55.3381 33.2827C56.5194 32.1015 57.7372 30.9385 58.9002 29.7207L58.9551 29.6657C59.6327 28.9881 59.6876 27.7428 58.9551 27.0744C58.2225 26.3967 57.0871 26.3418 56.3637 27.0744ZM34.7627 34.7386C34.6711 34.8302 34.5704 34.9218 34.4697 35.0133C34.4239 35.0591 34.369 35.0957 34.314 35.1415C34.1584 35.2789 34.4148 35.05 34.4239 35.0591C34.3507 35.0316 33.7738 35.4712 33.6547 35.5261C33.5998 35.5536 33.5357 35.5811 33.4808 35.6085C33.3068 35.7001 33.6181 35.5536 33.6273 35.5536C33.5082 35.5719 33.38 35.6452 33.2701 35.6818C32.9954 35.7734 32.7116 35.8375 32.4186 35.8924C32.0706 35.9565 32.7574 35.8741 32.4094 35.8924C32.2812 35.9015 32.1622 35.9107 32.034 35.9107H31.6585C31.5761 35.9107 31.1274 35.8558 31.4022 35.9015C31.6952 35.9473 31.2831 35.8741 31.219 35.8649C31.0725 35.8375 30.9352 35.8008 30.7978 35.7642C30.6788 35.7276 30.5597 35.6909 30.4407 35.6452C30.3857 35.6268 30.3216 35.5994 30.2667 35.5811C30.0378 35.4986 30.5689 35.7367 30.3583 35.6177C30.1294 35.4895 29.9004 35.3888 29.6898 35.2423C29.6349 35.2056 29.2961 34.9859 29.5067 35.1232C29.7173 35.2606 29.4884 35.1049 29.4334 35.0591C29.3693 35.0042 29.2961 34.9401 29.232 34.8851C29.0397 34.702 28.8657 34.5006 28.6826 34.2991C28.5452 34.1434 28.7741 34.3998 28.765 34.409C28.7741 34.3907 28.6643 34.2625 28.6551 34.2533C28.5727 34.1251 28.4903 33.9969 28.417 33.8687C28.3438 33.7405 28.2797 33.6032 28.2156 33.475C28.124 33.301 28.2705 33.6123 28.2705 33.6215C28.2614 33.5666 28.2247 33.5025 28.2064 33.4475C28.1148 33.1911 28.0324 32.9347 27.9775 32.6692C27.95 32.5501 27.95 32.4128 27.9134 32.3029C27.9134 32.3029 27.95 32.6875 27.9409 32.4769C27.9409 32.4128 27.9317 32.3487 27.9226 32.2938C27.9042 32.0007 27.9134 31.7169 27.9317 31.4239C27.95 31.0759 27.8585 31.7627 27.9317 31.4147C27.9592 31.2957 27.9775 31.1675 28.005 31.0484C28.0691 30.7737 28.2339 30.4899 28.2705 30.2151C28.2705 30.2243 28.1148 30.5356 28.2156 30.3617C28.243 30.3067 28.2705 30.2426 28.298 30.1877C28.3529 30.0778 28.417 29.9588 28.4811 29.8489C28.5452 29.739 28.6185 29.6291 28.6917 29.5192C28.7192 29.4826 28.8382 29.2903 28.7009 29.4918C28.5635 29.7024 28.7284 29.4643 28.765 29.4185C28.9481 29.1987 29.1587 28.9973 29.3693 28.805C29.4151 28.7592 29.4701 28.7226 29.525 28.6768C29.6807 28.5394 29.4243 28.7684 29.4151 28.7592C29.4517 28.7775 29.7448 28.5394 29.7905 28.512L30.1202 28.3197C30.1843 28.2831 30.5323 28.0908 30.3033 28.219C30.0836 28.3472 30.459 28.164 30.5597 28.1274C30.6971 28.0816 30.8436 28.045 30.9809 28.0083C31.1 27.9809 31.2282 27.9534 31.3472 27.9259C31.4022 27.9168 31.4754 27.9168 31.5303 27.8985C31.5303 27.8985 31.1458 27.9351 31.3564 27.9259C31.6494 27.9168 31.9333 27.8893 32.2263 27.9076C32.2995 27.9076 32.7024 27.9626 32.4186 27.9168C32.1255 27.871 32.5376 27.9443 32.6017 27.9534C32.8672 28.0084 33.1328 28.0816 33.3892 28.1732C33.4441 28.1915 33.5082 28.219 33.5632 28.2373C33.7646 28.3105 33.4075 28.1732 33.4167 28.1732C33.5082 28.1549 33.728 28.3288 33.8104 28.3746C33.9203 28.4387 34.0302 28.5028 34.14 28.5761L34.3049 28.686C34.5338 28.8325 34.2591 28.7043 34.2499 28.631C34.2774 28.7592 34.7352 29.0614 34.836 29.1713C34.9459 29.2812 35.0374 29.4002 35.1381 29.5192C35.2755 29.6749 35.0466 29.4185 35.0557 29.4093C35.0466 29.4277 35.1839 29.5925 35.2022 29.62C35.2847 29.7481 35.3579 29.8763 35.4312 30.0045C35.4769 30.0961 35.5502 30.3433 35.6326 30.3983C35.6235 30.3983 35.5044 30.0595 35.5685 30.2518C35.596 30.3342 35.6326 30.4074 35.6601 30.4899C35.715 30.6455 35.7608 30.8103 35.8066 30.9752C35.8432 31.1125 35.8707 31.259 35.8982 31.4055C35.9623 31.7169 35.8707 31.0484 35.8982 31.4788C35.9165 31.7718 35.9165 32.0557 35.8982 32.3487C35.8615 32.7882 35.9623 32.0282 35.889 32.4769C35.8615 32.6234 35.8341 32.7608 35.7974 32.9073C35.7608 33.0446 35.715 33.1911 35.6692 33.3285C35.6509 33.3926 35.6235 33.4475 35.6051 33.5025C35.5136 33.7497 35.5868 33.4567 35.6418 33.4109C35.5594 33.4658 35.4861 33.7222 35.4403 33.8046C35.3579 33.9511 35.2663 34.0977 35.1748 34.2442C35.1656 34.2625 35.0557 34.3907 35.0649 34.3998C35.0466 34.3632 35.303 34.116 35.1107 34.3357C35.0008 34.4731 34.8818 34.6104 34.7627 34.7386C34.0943 35.4254 34.0302 36.6524 34.7627 37.33C35.4861 37.9985 36.6399 38.0626 37.3541 37.33C39.6525 34.9859 40.2019 31.5154 38.8192 28.5578C37.5281 25.7741 34.369 23.961 31.3106 24.2724C28.1057 24.602 25.3037 26.818 24.507 30.0045C23.7104 33.1911 25.0381 36.4967 27.7486 38.3281C30.7337 40.3426 34.8268 39.8024 37.3633 37.33C38.05 36.6616 38.0866 35.4071 37.3633 34.7386C36.6124 34.061 35.4953 34.0152 34.7627 34.7386ZM56.9589 56.9165C56.8673 57.0081 56.7666 57.0996 56.6659 57.1912C56.6201 57.237 56.5652 57.2736 56.5102 57.3194C56.3545 57.4568 56.6109 57.2278 56.6201 57.237C56.5468 57.2095 55.97 57.649 55.8509 57.704C55.796 57.7315 55.7319 57.7589 55.6769 57.7864C55.503 57.878 55.8143 57.7315 55.8235 57.7315C55.7044 57.7498 55.5762 57.823 55.4663 57.8597C55.1916 57.9512 54.9078 58.0153 54.6147 58.0703C54.2668 58.1344 54.9536 58.0519 54.6056 58.0703C54.4774 58.0794 54.3584 58.0886 54.2302 58.0886H53.8547C53.7723 58.0886 53.3236 58.0336 53.5983 58.0794C53.8914 58.1252 53.4793 58.0519 53.4152 58.0428C53.2687 58.0153 53.1313 57.9787 52.994 57.9421C52.875 57.9054 52.7559 57.8688 52.6369 57.823C52.5819 57.8047 52.5178 57.7772 52.4629 57.7589C52.234 57.6765 52.7651 57.9146 52.5545 57.7956C52.3255 57.6674 52.0966 57.5666 51.886 57.4201C51.8311 57.3835 51.4923 57.1637 51.7029 57.3011C51.9135 57.4384 51.6846 57.2828 51.6296 57.237C51.5655 57.182 51.4923 57.118 51.4282 57.063C51.2359 56.8799 51.0619 56.6784 50.8788 56.477C50.7414 56.3213 50.9703 56.5777 50.9612 56.5869C50.9703 56.5685 50.8604 56.4403 50.8513 56.4312C50.7689 56.303 50.6865 56.1748 50.6132 56.0466C50.54 55.9184 50.4759 55.7811 50.4118 55.6529C50.3202 55.4789 50.4667 55.7902 50.4667 55.7994C50.4575 55.7444 50.4209 55.6803 50.4026 55.6254C50.311 55.369 50.2286 55.1126 50.1737 54.8471C50.1462 54.728 50.1462 54.5907 50.1096 54.4808C50.1096 54.4808 50.1462 54.8654 50.1371 54.6548C50.1371 54.5907 50.1279 54.5266 50.1187 54.4716C50.1004 54.1786 50.1096 53.8947 50.1279 53.6017C50.1462 53.2538 50.0546 53.9405 50.1279 53.5926C50.1554 53.4735 50.1737 53.3453 50.2012 53.2263C50.2652 52.9516 50.4301 52.6677 50.4667 52.393C50.4667 52.4022 50.311 52.7135 50.4118 52.5395C50.4392 52.4846 50.4667 52.4205 50.4942 52.3656C50.5491 52.2557 50.6132 52.1366 50.6773 52.0267C50.7414 51.9169 50.8147 51.807 50.8879 51.6971C50.9154 51.6605 51.0344 51.4682 50.8971 51.6696C50.7597 51.8802 50.9245 51.6422 50.9612 51.5964C51.1443 51.3766 51.3549 51.1752 51.5655 50.9829C51.6113 50.9371 51.6662 50.9005 51.7212 50.8547C51.8769 50.7173 51.6205 50.9462 51.6113 50.9371C51.6479 50.9554 51.941 50.7173 51.9867 50.6898L52.3164 50.4976C52.3805 50.4609 52.7284 50.2686 52.4995 50.3968C52.2798 50.525 52.6552 50.3419 52.7559 50.3053C52.8933 50.2595 53.0398 50.2229 53.1771 50.1862C53.2962 50.1588 53.4244 50.1313 53.5434 50.1038C53.5983 50.0947 53.6716 50.0947 53.7265 50.0763C53.7265 50.0763 53.3419 50.113 53.5526 50.1038C53.8456 50.0947 54.1294 50.0672 54.4225 50.0855C54.4957 50.0855 54.8986 50.1404 54.6147 50.0947C54.3217 50.0489 54.7338 50.1221 54.7979 50.1313C55.0634 50.1862 55.329 50.2595 55.5854 50.351C55.6403 50.3694 55.7044 50.3968 55.7593 50.4151C55.9608 50.4884 55.6037 50.351 55.6128 50.351C55.7044 50.3327 55.9242 50.5067 56.0066 50.5525C56.1165 50.6166 56.2264 50.6807 56.3362 50.7539L56.5011 50.8638C56.73 51.0103 56.4553 50.8821 56.4461 50.8089C56.4736 50.9371 56.9314 51.2393 57.0322 51.3491C57.142 51.459 57.2336 51.5781 57.3343 51.6971C57.4717 51.8528 57.2428 51.5964 57.2519 51.5872C57.2428 51.6055 57.3801 51.7704 57.3984 51.7978C57.4808 51.926 57.5541 52.0542 57.6273 52.1824C57.6731 52.274 57.7464 52.5212 57.8288 52.5762C57.8196 52.5762 57.7006 52.2374 57.7647 52.4296C57.7922 52.5121 57.8288 52.5853 57.8563 52.6677C57.9112 52.8234 57.957 52.9882 58.0028 53.153C58.0394 53.2904 58.0669 53.4369 58.0943 53.5834C58.1584 53.8947 58.0669 53.2263 58.0943 53.6567C58.1127 53.9497 58.1127 54.2335 58.0943 54.5266C58.0577 54.9661 58.1584 54.2061 58.0852 54.6548C58.0577 54.8013 58.0303 54.9386 57.9936 55.0851C57.957 55.2225 57.9112 55.369 57.8654 55.5063C57.8471 55.5704 57.8196 55.6254 57.8013 55.6803C57.7098 55.9276 57.783 55.6345 57.838 55.5888C57.7555 55.6437 57.6823 55.9001 57.6365 55.9825C57.5541 56.129 57.4625 56.2755 57.371 56.422C57.3618 56.4403 57.2519 56.5685 57.2611 56.5777C57.2428 56.5411 57.4992 56.2938 57.3069 56.5136C57.2061 56.6601 57.0871 56.7883 56.9589 56.9165C56.2905 57.6033 56.2264 58.8303 56.9589 59.5079C57.6823 60.1763 58.8361 60.2404 59.5503 59.5079C61.8487 57.1637 62.3981 53.6933 61.0154 50.7356C59.7243 47.952 56.5652 46.1389 53.5068 46.4502C50.3019 46.7799 47.4999 48.9958 46.7032 52.1824C45.9066 55.369 47.2343 58.6746 49.9448 60.506C52.9299 62.5205 57.023 61.9802 59.5594 59.5079C60.2462 58.8394 60.2828 57.585 59.5594 56.9165C58.8086 56.2389 57.6914 56.2023 56.9589 56.9165Z" fill="#F03F3F"></path></svg>