<svg width="71" height="71" viewBox="0 0 71 71" fill="none" xmlns="http://www.w3.org/2000/svg">
<circle cx="35.8871" cy="35.7639" r="35.1133" fill="white"/>
<path fill-rule="evenodd" clip-rule="evenodd" d="M42.323 24.9039C42.5266 24.7358 42.6504 24.488 42.6504 24.2225C42.6504 23.9571 42.5266 23.7093 42.323 23.5412L30.9879 14.197C30.7225 13.9758 30.3597 13.9316 30.05 14.082C29.7403 14.2236 29.5367 14.5333 29.5367 14.8784V17.5241C20.5731 17.9843 13.4146 25.4259 13.4146 34.5135C13.4146 36.646 13.8039 38.7166 14.5737 40.6721C14.7065 41.0084 15.0339 41.2296 15.3966 41.2296C15.7595 41.2296 16.0869 41.0084 16.2196 40.6633C18.4052 35.0355 23.5728 31.3014 29.5367 30.9652V33.5667C29.5367 33.9029 29.7403 34.2215 30.05 34.363C30.3597 34.5135 30.7225 34.4604 30.9879 34.2481L42.323 24.9039ZM55.6757 31.0005C56.0384 31.0005 56.3658 31.2217 56.4986 31.5579C57.2684 33.5135 57.6577 35.5841 57.6577 37.7166C57.6577 46.8041 50.4992 54.2458 41.5356 54.706V57.3517C41.5356 57.6968 41.332 58.0065 41.0223 58.1481C40.9073 58.21 40.7745 58.2366 40.6507 58.2366C40.4471 58.2366 40.2436 58.1658 40.0844 58.033L28.7493 48.6889C28.5457 48.5208 28.4219 48.273 28.4219 48.0076C28.4219 47.7421 28.5457 47.4943 28.7493 47.3262L40.0844 37.9821C40.3498 37.7697 40.7126 37.7166 41.0223 37.867C41.332 38.0086 41.5356 38.3272 41.5356 38.6634V41.2649C47.4995 40.9287 52.6671 37.1945 54.8527 31.5668C54.9854 31.2217 55.3128 31.0005 55.6757 31.0005Z" fill="#F35858"/>
</svg>
