<svg xmlns="http://www.w3.org/2000/svg" width="66" height="66" viewBox="0 0 66 66" fill="none"><circle cx="33" cy="33" r="33" fill="#FFD7D7"></circle><path d="M48.0469 18.77C47.6526 18.3756 47.1268 18.1784 46.6009 18.1784H46.4038C39.7653 18.1784 35.3615 15.1549 32.8638 12.6573C32.4695 12.2629 31.8779 12 31.3521 12C30.7606 12 30.2347 12.1972 29.8404 12.6573C27.3427 15.1549 22.939 18.1784 16.3005 18.1784H16.169C15.5775 18.1784 15.0516 18.3756 14.6573 18.77C14.2629 19.1643 14 19.6901 14 20.2817V28.9577C14 30.2066 14.0657 31.4554 14.2629 32.6385C15.5117 42.169 21.6244 50.2535 30.2347 53.8685C30.4977 54 30.7606 54 31.0892 54H31.6807C31.9437 54 32.2723 53.9343 32.4695 53.8685C37.4648 51.7653 41.6714 48.1502 44.5634 43.4178C45.0235 42.6948 45.4178 41.9718 45.7465 41.1831H35.6244V41.5775C35.6244 43.9437 33.7183 45.8498 31.3521 45.8498C28.9859 45.8498 27.0798 43.9437 27.0798 41.5775V22.9108C27.0798 20.5446 28.9859 18.6385 31.3521 18.6385C33.7183 18.6385 35.6244 20.5446 35.6244 22.9108V23.3052H48.7042V20.2817C48.7042 19.7559 48.4413 19.1643 48.0469 18.77ZM28.4601 41.2488V41.6432C28.4601 43.2207 29.7746 44.5352 31.3521 44.5352C32.9296 44.5352 34.2441 43.2207 34.2441 41.6432V41.2488H28.4601ZM31.3521 20.1502C29.7746 20.1502 28.4601 21.4648 28.4601 23.0423V23.4366H34.2441V23.0423C34.2441 21.4648 32.9296 20.1502 31.3521 20.1502ZM49.6244 24.8169H28.4601V26.5915H49.6901C50.0845 26.5915 50.4131 26.9202 50.4131 27.3146C50.4131 27.7089 50.0845 28.0376 49.6901 28.0376H28.4601V31.7183H49.6901C50.0845 31.7183 50.4131 32.0469 50.4131 32.4413C50.4131 32.8357 50.0845 33.1643 49.6901 33.1643H28.4601V40H49.6244C50.8075 40 51.7934 39.0141 51.7934 37.831V26.9859C51.8592 25.8028 50.8732 24.8169 49.6244 24.8169ZM40.8826 36.4507H38.9765C38.5822 36.4507 38.2535 36.1221 38.2535 35.7277C38.2535 35.3333 38.5822 35.0047 38.9765 35.0047H40.8826C41.277 35.0047 41.6056 35.3333 41.6056 35.7277C41.6056 36.1221 41.277 36.4507 40.8826 36.4507ZM44.892 36.4507H42.9859C42.5915 36.4507 42.2629 36.1221 42.2629 35.7277C42.2629 35.3333 42.5915 35.0047 42.9859 35.0047H44.892C45.2864 35.0047 45.615 35.3333 45.615 35.7277C45.615 36.1221 45.2864 36.4507 44.892 36.4507ZM48.9014 36.4507H46.9953C46.6009 36.4507 46.2723 36.1221 46.2723 35.7277C46.2723 35.3333 46.6009 35.0047 46.9953 35.0047H48.9014C49.2958 35.0047 49.6244 35.3333 49.6244 35.7277C49.6244 36.1221 49.2958 36.4507 48.9014 36.4507Z" fill="#F03F3F"></path></svg>