<svg xmlns="http://www.w3.org/2000/svg" width="108" height="92" viewBox="0 0 108 92" fill="none"><path d="M99.3951 0H7.695C3.4531 0 0 3.4531 0 7.695V84.305C0 88.5469 3.45126 92 7.695 92H99.3951C103.637 92 107.09 88.5469 107.09 84.305V7.695C107.09 3.4531 103.639 0 99.3951 0ZM3.56342 7.695C3.56342 5.41684 5.41684 3.56158 7.695 3.56158H99.3951C101.673 3.56158 103.527 5.415 103.527 7.695V19.7533H3.56342V7.695ZM103.527 84.305C103.527 86.5832 101.673 88.4384 99.3951 88.4384H7.695C5.41684 88.4384 3.56342 86.585 3.56342 84.305V23.3167H103.527V84.305Z" fill="#F03F3F"></path><path d="M14.4319 42.5717H23.4838L28.2829 50.8827C28.601 51.4343 29.1893 51.7726 29.8255 51.7726H40.4514C41.0876 51.7726 41.676 51.4343 41.9941 50.8827L46.7932 42.5717H92.6579C93.6416 42.5717 94.4396 41.7756 94.4396 40.79C94.4396 39.8045 93.6416 39.0083 92.6579 39.0083H46.795L41.996 30.6955C41.6779 30.1439 41.0895 29.8056 40.4533 29.8056H29.8274C29.1912 29.8056 28.6028 30.1439 28.2847 30.6955L23.4857 39.0083H14.4337C13.45 39.0083 12.652 39.8045 12.652 40.79C12.652 41.7756 13.45 42.5717 14.4337 42.5717H14.4319ZM30.8534 33.3671H39.4236L43.7096 40.79L39.4236 48.211H30.8534L26.5692 40.79L30.8534 33.3671ZM14.4319 66.6184H60.2966L65.0957 74.9293C65.4138 75.481 66.0022 75.8193 66.6383 75.8193H77.2643C77.9004 75.8193 78.4888 75.481 78.8069 74.9293L83.606 66.6184H92.6579C93.6416 66.6184 94.4396 65.8222 94.4396 64.8367C94.4396 63.8511 93.6416 63.055 92.6579 63.055H83.606L78.8069 54.7421C78.4888 54.1905 77.9004 53.8522 77.2643 53.8522H66.6383C66.0022 53.8522 65.4138 54.1905 65.0957 54.7421L60.2966 63.055H14.4319C13.4482 63.055 12.6502 63.8511 12.6502 64.8367C12.6502 65.8222 13.4482 66.6184 14.4319 66.6184ZM67.6662 57.4138H76.2364L80.5206 64.8367L76.2364 72.2577H67.6662L63.3801 64.8367L67.6662 57.4138ZM14.3565 6.31421C11.409 6.31421 9.01318 8.71189 9.01318 11.6575C9.01318 14.6031 11.4109 17.0008 14.3565 17.0008C17.3021 17.0008 19.6998 14.6031 19.6998 11.6575C19.6998 8.71189 17.3021 6.31421 14.3565 6.31421ZM14.3565 13.4392C13.3746 13.4392 12.5748 12.6412 12.5748 11.6575C12.5748 10.6738 13.3746 9.87579 14.3565 9.87579C15.3383 9.87579 16.1382 10.6738 16.1382 11.6575C16.1382 12.6412 15.3383 13.4392 14.3565 13.4392ZM26.8266 6.31421C23.8792 6.31421 21.4833 8.71189 21.4833 11.6575C21.4833 14.6031 23.881 17.0008 26.8266 17.0008C29.7722 17.0008 32.1699 14.6031 32.1699 11.6575C32.1699 8.71189 29.7722 6.31421 26.8266 6.31421ZM26.8266 13.4392C25.8447 13.4392 25.0449 12.6412 25.0449 11.6575C25.0449 10.6738 25.8447 9.87579 26.8266 9.87579C27.8085 9.87579 28.6083 10.6738 28.6083 11.6575C28.6083 12.6412 27.8085 13.4392 26.8266 13.4392ZM39.2949 6.31421C36.3474 6.31421 33.9516 8.71189 33.9516 11.6575C33.9516 14.6031 36.3493 17.0008 39.2949 17.0008C42.2405 17.0008 44.6382 14.6031 44.6382 11.6575C44.6382 8.71189 42.2405 6.31421 39.2949 6.31421ZM39.2949 13.4392C38.313 13.4392 37.5132 12.6412 37.5132 11.6575C37.5132 10.6738 38.313 9.87579 39.2949 9.87579C40.2768 9.87579 41.0766 10.6738 41.0766 11.6575C41.0766 12.6412 40.2768 13.4392 39.2949 13.4392Z" fill="#F03F3F"></path></svg>