<svg xmlns="http://www.w3.org/2000/svg" width="66" height="66" viewBox="0 0 66 66" fill="none"><circle cx="33" cy="33" r="33" fill="#FFD7D7"></circle><path d="M31.7898 37.7146C31.7898 38.1465 31.6182 38.5607 31.3128 38.8661C31.0074 39.1715 30.5932 39.3431 30.1613 39.3431H11.6285C11.1966 39.3431 10.7824 39.1715 10.477 38.8661C10.1716 38.5607 10 38.1465 10 37.7146C10 37.2827 10.1716 36.8684 10.477 36.563C10.7824 36.2576 11.1966 36.086 11.6285 36.086H30.1613C30.5932 36.086 31.0074 36.2576 31.3128 36.563C31.6182 36.8684 31.7898 37.2827 31.7898 37.7146ZM30.1613 42.6002H16.5141C16.0822 42.6002 15.668 42.7718 15.3626 43.0772C15.0572 43.3826 14.8856 43.7968 14.8856 44.2287C14.8856 44.6606 15.0572 45.0749 15.3626 45.3803C15.668 45.6857 16.0822 45.8573 16.5141 45.8573H30.1287C30.5606 45.8573 30.9748 45.6857 31.2803 45.3803C31.5857 45.0749 31.7572 44.6606 31.7572 44.2287C31.7572 43.7968 31.5857 43.3826 31.2803 43.0772C30.9748 42.7718 30.5606 42.6002 30.1287 42.6002H30.1613ZM30.1613 49.1143H21.3998C20.9678 49.1143 20.5536 49.2859 20.2482 49.5913C19.9428 49.8967 19.7712 50.311 19.7712 50.7429C19.7712 51.1748 19.9428 51.589 20.2482 51.8944C20.5536 52.1998 20.9678 52.3714 21.3998 52.3714H30.1287C30.5606 52.3714 30.9748 52.1998 31.2803 51.8944C31.5857 51.589 31.7572 51.1748 31.7572 50.7429C31.7572 50.311 31.5857 49.8967 31.2803 49.5913C30.9748 49.2859 30.5606 49.1143 30.1287 49.1143H30.1613ZM55.5664 36.086C55.5664 40.8371 53.6791 45.3936 50.3196 48.7531C46.9601 52.1126 42.4036 53.9999 37.6525 53.9999C36.4446 54.003 35.2392 53.8885 34.0535 53.658C34.7404 52.7526 35.0901 51.636 35.0426 50.5006C34.995 49.3651 34.5531 48.2817 33.7929 47.4369C34.6036 46.5451 35.056 45.3851 35.0632 44.1799C35.0654 42.9729 34.6117 41.8096 33.7929 40.9228C34.4202 40.2215 34.8316 39.354 34.9778 38.4245C35.1239 37.495 34.9985 36.543 34.6167 35.6831C34.2349 34.8231 33.6129 34.0917 32.8254 33.5767C32.0379 33.0618 31.1185 32.7851 30.1776 32.7801H20.0318C20.5697 29.927 21.7875 27.2456 23.582 24.9631L21.3998 22.7809C21.0964 22.4758 20.9262 22.063 20.9262 21.6328C20.9262 21.2026 21.0964 20.7898 21.3998 20.4847C21.5511 20.332 21.7313 20.2109 21.9297 20.1282C22.1282 20.0455 22.341 20.003 22.556 20.003C22.771 20.003 22.9839 20.0455 23.1823 20.1282C23.3808 20.2109 23.5609 20.332 23.7123 20.4847L25.8619 22.6343C28.7163 20.1405 32.2829 18.6079 36.0566 18.2536V15.2571H34.428C33.9961 15.2571 33.5819 15.0855 33.2765 14.7801C32.9711 14.4747 32.7995 14.0605 32.7995 13.6285C32.7995 13.1966 32.9711 12.7824 33.2765 12.477C33.5819 12.1716 33.9961 12 34.428 12H40.763C41.195 12 41.6092 12.1716 41.9146 12.477C42.22 12.7824 42.3916 13.1966 42.3916 13.6285C42.3916 14.0605 42.22 14.4747 41.9146 14.7801C41.6092 15.0855 41.195 15.2571 40.763 15.2571H39.3136V18.3676C43.7491 18.7724 47.8747 20.815 50.8856 24.097C53.8966 27.3789 55.577 31.6648 55.599 36.1186L55.5664 36.086ZM45.3392 28.4319C45.1878 28.2793 45.0077 28.1581 44.8093 28.0755C44.6108 27.9928 44.398 27.9502 44.183 27.9502C43.968 27.9502 43.7551 27.9928 43.5567 28.0755C43.3582 28.1581 43.1781 28.2793 43.0267 28.4319L36.5126 34.9461C36.2894 35.1737 36.1379 35.4618 36.0769 35.7747C36.016 36.0876 36.0482 36.4115 36.1695 36.7063C36.2909 37.001 36.4961 37.2537 36.7598 37.4329C37.0234 37.6122 37.3338 37.7101 37.6525 37.7146C37.8669 37.7158 38.0793 37.6747 38.2777 37.5937C38.4762 37.5127 38.6566 37.3932 38.8088 37.2423L45.3229 30.7282C45.6284 30.4252 45.8016 30.0136 45.8047 29.5834C45.8077 29.1532 45.6404 28.7392 45.3392 28.4319Z" fill="#F03F3F"></path></svg>