<svg xmlns="http://www.w3.org/2000/svg" width="24" height="24" viewBox="0 0 24 24" fill="none"><path d="M23.8457 10.0843C23.9488 10.7162 24.0004 11.3555 24 11.9957C24.001 14.7528 23.0525 17.4261 21.3142 19.5661C19.5758 21.7061 17.1536 23.1822 14.4548 23.7462C11.7561 24.3102 8.94542 23.9277 6.49552 22.663C4.04563 21.3984 2.10595 19.3286 1.00268 16.8019C-0.100598 14.2753 -0.300164 11.4457 0.43754 8.78918C1.17524 6.13264 2.80522 3.81115 5.05335 2.21512C7.30147 0.619093 10.0306 -0.154123 12.7818 0.025508C15.533 0.205139 18.1385 1.32666 20.16 3.20146C20.3084 3.36002 20.391 3.56899 20.3913 3.78614C20.3915 4.0033 20.3093 4.21246 20.1613 4.37135C20.0133 4.53025 19.8105 4.62705 19.5939 4.64218C19.3772 4.65731 19.1629 4.58966 18.9943 4.45289C17.2617 2.84606 15.0287 1.88478 12.6707 1.73068C10.3128 1.57659 7.97368 2.23907 6.04672 3.60675C4.11976 4.97442 2.72248 6.96387 2.08981 9.24059C1.45714 11.5173 1.62768 13.9424 2.57274 16.1082C3.5178 18.274 5.17976 20.0483 7.27916 21.1328C9.37855 22.2174 11.7874 22.546 14.1005 22.0634C16.4137 21.5808 18.4902 20.3165 19.9809 18.483C21.4715 16.6496 22.2854 14.3587 22.2857 11.9957C22.2862 11.4475 22.2432 10.9001 22.1571 10.3586C22.1391 10.246 22.1435 10.131 22.1699 10.0201C22.1963 9.90926 22.2443 9.80466 22.3112 9.71234C22.3781 9.62001 22.4624 9.54175 22.5595 9.48204C22.6566 9.42233 22.7646 9.38232 22.8771 9.36431C22.9897 9.3463 23.1047 9.35064 23.2156 9.37708C23.3265 9.40351 23.4311 9.45153 23.5234 9.51839C23.6157 9.58525 23.694 9.66963 23.7537 9.76674C23.8134 9.86384 23.8534 9.97175 23.8714 10.0843H23.8457ZM7.46571 10.53C7.30431 10.3686 7.0854 10.2779 6.85714 10.2779C6.62888 10.2779 6.40997 10.3686 6.24857 10.53C6.08717 10.6914 5.99649 10.9103 5.99649 11.1386C5.99649 11.3669 6.08717 11.5858 6.24857 11.7472L11.3914 16.89C11.4711 16.9704 11.5659 17.0341 11.6704 17.0776C11.7748 17.1212 11.8868 17.1436 12 17.1436C12.1131 17.1436 12.2252 17.1212 12.3296 17.0776C12.4341 17.0341 12.5289 16.9704 12.6086 16.89L23.7514 5.74717C23.9128 5.58577 24.0035 5.36686 24.0035 5.1386C24.0035 4.91034 23.9128 4.69143 23.7514 4.53003C23.59 4.36863 23.3711 4.27795 23.1428 4.27795C22.9146 4.27795 22.6957 4.36863 22.5343 4.53003L12 15.0729L7.46571 10.53Z" fill="#F35858"></path></svg>