<svg xmlns="http://www.w3.org/2000/svg" width="40" height="39" viewBox="0 0 40 39" fill="none"><path d="M36.7945 14.1103H35.1298C34.9634 13.6109 34.7552 13.0698 34.5056 12.6119L35.671 11.4465C36.2122 10.9471 36.5034 10.2811 36.5034 9.5317C36.5034 8.78264 36.2119 8.07476 35.7125 7.57544L31.9247 3.78771C30.8426 2.74715 29.1776 2.74715 28.0955 3.82923L26.8886 5.03614C26.3892 4.82796 25.8895 4.61979 25.3902 4.41192V2.74716C25.3902 1.24875 24.1832 0 22.643 0L17.3568 0.000290336C15.8584 0.000290336 14.6097 1.2072 14.6097 2.74745V4.41221C14.0685 4.57857 13.5691 4.78674 13.1113 5.03643L11.9458 3.87099C10.9053 2.83043 9.11566 2.83043 8.07509 3.87099L4.32921 7.61688C3.28865 8.69899 3.28865 10.4056 4.32921 11.4876L6.28547 13.4439C6.86817 14.0266 7.82543 14.0266 8.40815 13.4439C8.99086 12.8612 8.99085 11.9039 8.40815 11.3212L6.66 9.57306L10.0314 6.24318L11.7795 7.99133C12.2789 8.49071 12.9864 8.57403 13.5691 8.24102C14.4433 7.74164 15.4006 7.32532 16.5245 6.99227C17.1487 6.7841 17.6066 6.20137 17.6066 5.53533V3.03783H22.3516V5.53533C22.3516 6.20136 22.8094 6.82556 23.4754 6.99227C24.5576 7.28377 25.5566 7.69981 26.4308 8.19917C27.0135 8.53219 27.7629 8.44886 28.2204 7.94948L29.9686 6.20134L33.3399 9.57269L31.5918 11.3623C31.1339 11.8617 31.0091 12.5692 31.3421 13.1519C31.8415 14.0262 32.2578 15.0249 32.549 16.1073C32.7153 16.7733 33.3399 17.2312 34.0059 17.2312H36.5034V21.9761H34.0059C33.3399 21.9761 32.7157 22.434 32.549 23.1C32.2575 24.1821 31.8414 25.1811 31.3421 26.0554C31.0091 26.6381 31.0924 27.3874 31.5918 27.8868L33.3814 29.635L30.01 33.0063L28.2619 31.2167C27.7625 30.7173 27.055 30.634 26.4304 30.967C25.5147 31.5082 24.5156 31.9243 23.4751 32.1739C22.809 32.3403 22.3512 32.9648 22.3512 33.6309V36.1284L17.6898 36.1287V33.673C17.6898 33.007 17.232 32.3828 16.5659 32.2161C15.5254 31.9246 14.5264 31.5085 13.6106 31.0092C13.0279 30.6761 12.2785 30.7595 11.821 31.2588L10.0728 33.007L6.74295 29.6771L8.4911 27.929C9.0738 27.3463 9.0738 26.389 8.4911 25.8063C7.9084 25.2236 6.95114 25.2236 6.36842 25.8063L4.37061 27.6375C3.33005 28.7196 3.33005 30.3846 4.41213 31.4667L8.15801 35.2126C8.65739 35.712 9.32344 36.0035 10.1143 36.0035C10.8633 36.0035 11.5294 35.712 11.9872 35.2126L13.1941 34.0057C13.6935 34.2554 14.1931 34.4636 14.6925 34.6299V36.2947C14.6925 37.7931 15.8994 39 17.4397 39H22.7674C24.2658 39 25.4727 37.7931 25.4727 36.2947V34.5881C25.9721 34.4217 26.4717 34.2135 26.9711 33.9639L28.178 35.1708C29.2186 36.1698 30.9667 36.1698 32.0488 35.1293L35.8365 31.3415C36.8355 30.301 36.8355 28.5528 35.795 27.4708L34.6295 26.3053C34.8377 25.806 35.0459 25.3481 35.2538 24.8069H36.9185C38.4169 24.8069 39.6657 23.6 39.6657 22.0598L39.6663 16.8573C39.5414 15.3588 38.3345 14.1101 36.7942 14.1101L36.7945 14.1103Z" fill="#F35858"></path><path d="M17.6482 24.3078C17.0655 24.8905 17.0655 25.8478 17.6482 26.4305C17.9397 26.722 18.3142 26.8884 18.7303 26.8884C19.1048 26.8884 19.5212 26.722 19.8124 26.4305L25.6394 20.6035C26.2221 20.0208 26.2221 19.0635 25.6394 18.4808L19.8124 12.6538C19.2297 12.0711 18.2724 12.0711 17.6897 12.6538C17.107 13.2365 17.107 14.1938 17.6897 14.7765L20.9778 18.0645H1.49841C0.666035 18.0645 0 18.7306 0 19.5629C0 20.3953 0.666027 21.0614 1.49841 21.0614H20.8945L17.6482 24.3078Z" fill="#F35858"></path></svg>